<?xml version="1.0" encoding="UTF-8"?>
<svg id="Layer_2" data-name="Layer 2" xmlns="http://www.w3.org/2000/svg" viewBox="0 0 405.25 396.71">
  <defs>
    <style>
      .cls-1 {
        fill: #54565a;
        stroke-width: 0px;
      }
    </style>
  </defs>
  <circle class="cls-1" cx="11.25" cy="149.46" r="11.25"/>
  <circle class="cls-1" cx="13.75" cy="176.46" r="11.25"/>
  <circle class="cls-1" cx="24.38" cy="201.71" r="11.25"/>
  <circle class="cls-1" cx="21.38" cy="123.71" r="11.25"/>
  <circle class="cls-1" cx="43.88" cy="107.33" r="11.25"/>
  <circle class="cls-1" cx="69.75" cy="101.21" r="11.25"/>
  <circle class="cls-1" cx="96.62" cy="103.83" r="11.25"/>
  <circle class="cls-1" cx="122.25" cy="110.96" r="11.25"/>
  <circle class="cls-1" cx="149" cy="119.58" r="11.25"/>
  <circle class="cls-1" cx="202.12" cy="137.08" r="11.25"/>
  <circle class="cls-1" cx="202.12" cy="168.58" r="11.25"/>
  <circle class="cls-1" cx="202.12" cy="198.33" r="11.25"/>
  <circle class="cls-1" cx="256" cy="120.21" r="11.25"/>
  <circle class="cls-1" cx="383.62" cy="124.71" r="11.25"/>
  <circle class="cls-1" cx="361.75" cy="107.83" r="11.25"/>
  <circle class="cls-1" cx="336.25" cy="102.21" r="11.25"/>
  <circle class="cls-1" cx="308.75" cy="104.33" r="11.25"/>
  <circle class="cls-1" cx="282.88" cy="111.46" r="11.25"/>
  <circle class="cls-1" cx="390.75" cy="177.83" r="11.25"/>
  <circle class="cls-1" cx="379.5" cy="202.71" r="11.25"/>
  <circle class="cls-1" cx="394" cy="150.58" r="11.25"/>
  <path class="cls-1" d="M232.73,88.02c0,16.58-13.44,30.02-30.02,30.02s-30.02-13.44-30.02-30.02,13.44-30.02,30.02-30.02,30.02,13.44,30.02,30.02Z"/>
  <rect class="cls-1" x="217.96" y="118.04" width="18.67" height="97.63"/>
  <rect class="cls-1" x="167.96" y="118.04" width="18.67" height="97.63"/>
  <path class="cls-1" d="M316.58,355.96c-.27,0-.54.03-.81.04H88.73c-.27-.01-.54-.04-.81-.04-11.25,0-20.37,9.12-20.37,20.37s9.12,20.37,20.37,20.37h228.67c11.25,0,20.38-9.12,20.38-20.37s-9.12-20.37-20.38-20.37Z"/>
  <polygon class="cls-1" points="97.96 349.91 76.62 335.29 97.96 320.67 119.96 335.29 97.96 349.91"/>
  <polygon class="cls-1" points="149.96 349.91 128.62 335.29 149.96 320.67 171.96 335.29 149.96 349.91"/>
  <polygon class="cls-1" points="201.96 349.91 180.62 335.29 201.96 320.67 223.96 335.29 201.96 349.91"/>
  <polygon class="cls-1" points="253.96 349.91 232.62 335.29 253.96 320.67 275.96 335.29 253.96 349.91"/>
  <polygon class="cls-1" points="304.96 349.91 283.62 335.29 304.96 320.67 326.96 335.29 304.96 349.91"/>
  <path class="cls-1" d="M229.62,42.58V10.75c-7.17,8.28-19.54,8.58-19.54,8.58,0,0-.09-13.5,8.79-19.33h-32.25c7.86,5.83,8.79,19.33,8.79,19.33,0,0-12.33-.14-19.54-8.58v31.83c7.42-8.58,19.54-8.58,19.54-8.58,0,0-.09,13.33-8.79,19.33h32.25c-7.72-6-8.79-19.33-8.79-19.33,0,0,12.38.7,19.54,8.58Z"/>
  <path class="cls-1" d="M119.29,268.67c3.02,1.64,5.58,7.17,6.08,11.17s-2.75,10.25-10.25,11.75-9.75,2.5-25.75-3-19.75-19.75-19.75-19.75c11.25.25,26.75,13.25,26.75,13.25l-17.5-48.25c-7.25,11.75-17.25,12.5-17.25,12.5,1.25-9.5,13.5-22,13.5-22,0,0-16.75-44.75-17.75-47.87s-4.75-10.12,1.12-21.62,22.5-7.75,22.5-7.75l17.38,4.75,59,19v-30.83l-43.75-14.17s-15.5-5.67-26.67-7.25c-11.17-1.58-28.33-1.92-39.5,7.25,0,0-20.99,11.49-19.5,38.67,0,0,1.5,12.5,6.5,24.17s16.17,36,16.17,36h-20.33l45.33,91h253.33l45.5-91.33h-20l17.67-40.17s8.17-21,2.33-37.33c-5.83-16.33-15.83-21.83-25.83-25.5s-28-4.08-44,1.37-57.67,17.62-57.67,17.62v30.83l58.83-19.5s20-7.5,29.17-4.33c8.83,2.17,18.33,11.5,13.67,24-2.33,6.32-10.17,27.5-10.17,27.5l-9.17,25.5s9.67,8,13.67,22.17c0,0-9.33-2.5-17.33-13.17l-17.83,48.33s11.83-11.17,27.83-13c0,0-8.67,19.5-27.83,22.17,0,0-10.04,2.87-19.04.62,0,0-4.25-1.25-6-3s-4.12-5.37-3.12-10.25,4-8.25,5-9.37,5.5-2.87,7.62,1.62c0,0,1,3.12.5,5.62s.38,7.25,5.5,7.37c0,0-2.62-2.5,4-8.5s8.25-16.62,8.25-16.62c0,0,1-6.12-6.5-9.37s-12,2-12,2l-6.88,7.5s6.5-12.25,4.38-24.12-4.38-18.67-4.38-18.67c0,0-10,9.29-15.38,21.42s-3,20.87-3,20.87c0,0-3.5-10.12-11.62-10.25s-12.38,7.37-12.38,7.37c0,0-1.88,6.12.12,13.87s.12,11.37-1,13.5c0,0,6.25,1.75,8-5.87s4.5-8.75,5.62-9.25,5-1.5,6.88,3.25-3.25,13.34-4.88,14.62c-2.74,2.16-8.88,7.29-20.88,6.62,0,0-15.75,1.75-21.12-20.75,0,0,12.62,3.12,21.12,11.25v-49.12s-12.48,11.51-23.25,14.87c-2,.62,7.12-21,14.75-23.5h-51.75s13,11.25,14.5,23.25c0,0-13.58-3.62-22.92-14.75v49.25s14.04-11.62,22.04-11.62c0,0-5.12,17.62-15.75,19.75s-17.29,3.71-26.88-5c0,0-4.88-6.25-5.38-10.5s1.62-8,6.75-7.87,5.75,8.37,6.62,10.5,2.1,6.1,7.88,5c0,0-3.25-3.25-1.5-12.62s1.5-19.5-6.25-21.37-14.38-.25-17.75,9c0,0,3.88-21.33-18-41.92,0,0-10.62,20.79-.38,42.54,0,0-6.38-9.87-13.62-10.25s-14.25,7.12-10.88,14.62,8.62,12.75,8.62,12.75c0,0,5.62,3.75,2.75,8.25,0,0,5.88.25,5.62-9.5s6.66-5.82,7.42-5.42Z"/>
</svg>