<svg xmlns="http://www.w3.org/2000/svg" xmlns:xlink="http://www.w3.org/1999/xlink" xmlns:inkscape="http://www.inkscape.org/namespaces/inkscape" version="1.1" width="612" height="792" viewBox="0 0 612 792">
<path transform="matrix(.1,0,0,-.1,0,792)" d="M5195.32 2756.74C5177.8 2785.23 5150.18 2810.63 5117.19 2823.36 5105.89 2827.69 5093.45 2830.73 5082.57 2833.57 5078.77 2833.57 4976.07 2853.26 4931.36 2864.35 4927.52 2864.35 4910.05 2868.45 4905.75 2869.47 4901.92 2869.47 4832.42 2886.33 4804.52 2895.13 4794.55 2898.27 4743.58 2915.24 4723.81 2916.91 4724.01 2906.81 4724.35 2901.98 4726.32 2895.97 4726.32 2892.55 4728.93 2890.84 4728.93 2887.41 4732.57 2873.91 4740.24 2858.26 4734.07 2814.39 4719.05 2746.31 4684.1 2687.78 4645.64 2634.98 4636.05 2621.84 4564.92 2546.43 4538.02 2526.07 4524.75 2516.06 4456.31 2451.12 4431.66 2432.55 4428.24 2428.72 4393.03 2398.98 4377.85 2387.67 4369.43 2381.41 4205.58 2240.93 4127.96 2182.66 4111.94 2170.65 4098.18 2155.25 4081.85 2142.95 4076.03 2138.57 3958.05 2030.32 3908.85 1977.64 3885.27 1952.45 3831.01 1899.18 3816.58 1882.84 3802.15 1866.48 3665.92 1715.62 3657.69 1704.69 3649.57 1697.01 3641.47 1689.34 3633.38 1681.66 3626.2 1672.24 3618.45 1663.18 3610.27 1654.71 3605.17 1650.03 3544.45 1583.81 3518 1557.36 3508.2 1547.93 3498.4 1538.59 3488.56 1529.15 3470.25 1504.96 3408.02 1446.4 3398.87 1439.48 3375.89 1418.09 3363.96 1407.28 3345.04 1393.35 3274.49 1341.42 3199.73 1294.74 3106.71 1265.21 3102.43 1265.21 3079.82 1257.94 3049.04 1254.94 3018.27 1251.95 2996 1252.24 2984.97 1249.82 2976.88 1250.27 2895.46 1249.86 2846.59 1260.08 2817.49 1267.55 2769.57 1278.76 2742.79 1290.82 2676.89 1323.57 2617.47 1364.06 2560.84 1406.15 2535.27 1425.13 2522.39 1437.69 2489.1 1470.22 2485.78 1472.73 2358.81 1602.61 2349.41 1615 2345.86 1619.72 2282.36 1689.67 2277.66 1694.46 2258.05 1714.41 2162.82 1816.52 2149.52 1834.12 2143.1 1840.12 2118.2 1869.11 2111.06 1876.42 2105.52 1881.54 2019.92 1971.48 1981.68 2009.68 1961.86 2029.45 1873.22 2112.87 1839.44 2142.95 1805.61 2173.02 1586.37 2355.22 1575.46 2363.3 1536.21 2392.51 1511.5 2413.45 1462.7 2455.58 1449.64 2465.46 1326.3 2579.46 1293.56 2623.47 1275.91 2647.12 1232.55 2707.98 1220.56 2731.8 1208.59 2755.57 1180.21 2815.97 1187.21 2877.21 1190.42 2890.8 1195.8 2905.48 1198.74 2918.16H1197.45V2919.45C1170.44 2914 1142.35 2903.15 1116.74 2895.13 1082.79 2884.45 1046.71 2880.17 1014.21 2869.47 999.723 2864.68 847.664 2838.75 843.801 2838.75 829.184 2834.65 806.844 2829.14 793.832 2822.05 748.934 2797.7 727.441 2760.82 710.551 2705.44 694.152 2651.8 724.652 2579.88 724.652 2577.3 733.664 2551.55 748.781 2525.99 760.523 2503 785.254 2454.54 857.801 2356.81 863.031 2349.21 879.402 2325.39 941.262 2256.36 951.434 2242.89 952.313 2241.77 953.191 2240.6 954.102 2239.5 964.621 2226.25 976.711 2215.07 988.602 2203.15 993.293 2198.05 1016.17 2178.15 1021.91 2172.43 1055.51 2138.87 1089.81 2107.71 1128.27 2078.88 1136.64 2072.58 1212.21 2002.77 1243.59 1977.64 1266.36 1959.45 1288.88 1941.77 1312.79 1925.08 1322.42 1918.38 1330.13 1906.65 1339.69 1899.48 1367.84 1878.29 1393.37 1855.27 1421.69 1834.12 1431.39 1826.9 1482.07 1780.85 1499.86 1767.5 1509.33 1760.41 1516.36 1749.23 1525.5 1741.89 1557.21 1716.2 1584.14 1685.67 1616.47 1661.13 1632.13 1649.29 1673.82 1601.28 1677.97 1597.06 1691.95 1582.97 1705.32 1567.87 1718.98 1553.52 1735.87 1535.74 1782.62 1481.73 1790.74 1474.05 1806.57 1456.24 1847.55 1411.7 1852.24 1407.45 1866.59 1388.43 1882.99 1369.24 1899.65 1352.31 1909.31 1342.54 1922.11 1333.83 1930.41 1322.85 1941.47 1308.25 1953.52 1293.62 1966.29 1280.56 1975.33 1271.33 1984.06 1261.53 1993.19 1252.37 1997.46 1248.53 2077.02 1163.76 2113.65 1126.81 2134.74 1105.54 2153.48 1083.6 2177.72 1065.32 2186.86 1058.41 2274.89 980.52 2313.53 953.84 2338.5 936.609 2363.76 923.168 2389.14 906.406 2482.8 844.578 2590.83 803.168 2712.05 768.008 2742.82 759.066 2776.74 759.949 2808.15 752.648 2817.95 752.238 2927.99 744.969 2968.33 746.227 2986.59 746.809 3070.9 743.559 3084.91 746.227 3107.38 750.566 3166.5 757.34 3173.34 757.777 3243.66 775.34 3306.92 793.688 3369.38 819.309 3467.07 859.359 3553.53 913.707 3635.92 969.227 3641.38 972.887 3691.86 1014.48 3694.86 1017.89 3717.72 1034.59 3736.57 1053.56 3758.93 1070.41 3768.37 1077.58 3878.98 1194.72 3887.07 1202.39 3910.59 1233.51 3941.58 1258.37 3965.24 1289.57 3975 1302.41 4126.25 1452.24 4180.51 1524.07 4187.3 1530.45 4225.59 1570.63 4236.86 1585.55 4243.7 1591.97 4250.55 1598.36 4257.39 1604.74 4274.07 1621.43 4290.67 1638.07 4307.36 1654.71 4372.84 1720.21 4523.5 1846.09 4526.46 1849.51 4538.77 1858.8 4569.06 1882.78 4572.6 1885.37 4580.31 1891.13 4586.7 1900.24 4594.37 1905.91 4597.66 1908.32 4615.27 1923.24 4621.28 1927.68 4643.55 1944.2 4663.78 1961.71 4686.64 1977.64 4689.19 1980.66 4740.62 2023.23 4748.17 2028.87 4772.61 2047.31 4793.88 2070.41 4818.62 2089.1 4823.92 2093.11 4855.94 2122.8 4867.29 2131.4 4888.32 2147.24 4903.91 2170.43 4924.98 2186.5 4929.7 2191.63 4982.21 2245.85 4985.21 2248.02 4997.19 2263.55 5010.45 2276.97 5022.37 2292.86 5034.6 2309.17 5086.54 2376.75 5099.22 2395.34 5133.84 2446.15 5171.37 2497.91 5195.32 2559.4 5215.51 2610.91 5224.14 2709.93 5195.32 2756.74" fill="#ffffff"/>
<path transform="matrix(.1,0,0,-.1,0,792)" stroke-width="20" stroke-linecap="butt" stroke-miterlimit="4" stroke-linejoin="miter" fill="none" stroke="#093254" d="M5195.32 2756.74C5177.8 2785.23 5150.18 2810.63 5117.19 2823.36 5105.89 2827.69 5093.45 2830.73 5082.57 2833.57 5078.77 2833.57 4976.07 2853.26 4931.36 2864.35 4927.52 2864.35 4910.05 2868.45 4905.75 2869.47 4901.92 2869.47 4832.42 2886.33 4804.52 2895.13 4794.55 2898.27 4743.58 2915.24 4723.81 2916.91 4724.01 2906.81 4724.35 2901.98 4726.32 2895.97 4726.32 2892.55 4728.93 2890.84 4728.93 2887.41 4732.57 2873.91 4740.24 2858.26 4734.07 2814.39 4719.05 2746.31 4684.1 2687.78 4645.64 2634.98 4636.05 2621.84 4564.92 2546.43 4538.02 2526.07 4524.75 2516.06 4456.31 2451.12 4431.66 2432.55 4428.24 2428.72 4393.03 2398.98 4377.85 2387.67 4369.43 2381.41 4205.58 2240.93 4127.96 2182.66 4111.94 2170.65 4098.18 2155.25 4081.85 2142.95 4076.03 2138.57 3958.05 2030.32 3908.85 1977.64 3885.27 1952.45 3831.01 1899.18 3816.58 1882.84 3802.15 1866.48 3665.92 1715.62 3657.69 1704.69 3649.57 1697.01 3641.47 1689.34 3633.38 1681.66 3626.2 1672.24 3618.45 1663.18 3610.27 1654.71 3605.17 1650.03 3544.45 1583.81 3518 1557.36 3508.2 1547.93 3498.4 1538.59 3488.56 1529.15 3470.25 1504.96 3408.02 1446.4 3398.87 1439.48 3375.89 1418.09 3363.96 1407.28 3345.04 1393.35 3274.49 1341.42 3199.73 1294.74 3106.71 1265.21 3102.43 1265.21 3079.82 1257.94 3049.04 1254.94 3018.27 1251.95 2996 1252.24 2984.97 1249.82 2976.88 1250.27 2895.46 1249.86 2846.59 1260.08 2817.49 1267.55 2769.57 1278.76 2742.79 1290.82 2676.89 1323.57 2617.47 1364.06 2560.84 1406.15 2535.27 1425.13 2522.39 1437.69 2489.1 1470.22 2485.78 1472.73 2358.81 1602.61 2349.41 1615 2345.86 1619.72 2282.36 1689.67 2277.66 1694.46 2258.05 1714.41 2162.82 1816.52 2149.52 1834.12 2143.1 1840.12 2118.2 1869.11 2111.06 1876.42 2105.52 1881.54 2019.92 1971.48 1981.68 2009.68 1961.86 2029.45 1873.22 2112.87 1839.44 2142.95 1805.61 2173.02 1586.37 2355.22 1575.46 2363.3 1536.21 2392.51 1511.5 2413.45 1462.7 2455.58 1449.64 2465.46 1326.3 2579.46 1293.56 2623.47 1275.91 2647.12 1232.55 2707.98 1220.56 2731.8 1208.59 2755.57 1180.21 2815.97 1187.21 2877.21 1190.42 2890.8 1195.8 2905.48 1198.74 2918.16H1197.45V2919.45C1170.44 2914 1142.35 2903.15 1116.74 2895.13 1082.79 2884.45 1046.71 2880.17 1014.21 2869.47 999.723 2864.68 847.664 2838.75 843.801 2838.75 829.184 2834.65 806.844 2829.14 793.832 2822.05 748.934 2797.7 727.441 2760.82 710.551 2705.44 694.152 2651.8 724.652 2579.88 724.652 2577.3 733.664 2551.55 748.781 2525.99 760.523 2503 785.254 2454.54 857.801 2356.81 863.031 2349.21 879.402 2325.39 941.262 2256.36 951.434 2242.89 952.313 2241.77 953.191 2240.6 954.102 2239.5 964.621 2226.25 976.711 2215.07 988.602 2203.15 993.293 2198.05 1016.17 2178.15 1021.91 2172.43 1055.51 2138.87 1089.81 2107.71 1128.27 2078.88 1136.64 2072.58 1212.21 2002.77 1243.59 1977.64 1266.36 1959.45 1288.88 1941.77 1312.79 1925.08 1322.42 1918.38 1330.13 1906.65 1339.69 1899.48 1367.84 1878.29 1393.37 1855.27 1421.69 1834.12 1431.39 1826.9 1482.07 1780.85 1499.86 1767.5 1509.33 1760.41 1516.36 1749.23 1525.5 1741.89 1557.21 1716.2 1584.14 1685.67 1616.47 1661.13 1632.13 1649.29 1673.82 1601.28 1677.97 1597.06 1691.95 1582.97 1705.32 1567.87 1718.98 1553.52 1735.87 1535.74 1782.62 1481.73 1790.74 1474.05 1806.57 1456.24 1847.55 1411.7 1852.24 1407.45 1866.59 1388.43 1882.99 1369.24 1899.65 1352.31 1909.31 1342.54 1922.11 1333.83 1930.41 1322.85 1941.47 1308.25 1953.52 1293.62 1966.29 1280.56 1975.33 1271.33 1984.06 1261.53 1993.19 1252.37 1997.46 1248.53 2077.02 1163.76 2113.65 1126.81 2134.74 1105.54 2153.48 1083.6 2177.72 1065.32 2186.86 1058.41 2274.89 980.52 2313.53 953.84 2338.5 936.609 2363.76 923.168 2389.14 906.406 2482.8 844.578 2590.83 803.168 2712.05 768.008 2742.82 759.066 2776.74 759.949 2808.15 752.648 2817.95 752.238 2927.99 744.969 2968.33 746.227 2986.59 746.809 3070.9 743.559 3084.91 746.227 3107.38 750.566 3166.5 757.34 3173.34 757.777 3243.66 775.34 3306.92 793.688 3369.38 819.309 3467.07 859.359 3553.53 913.707 3635.92 969.227 3641.38 972.887 3691.86 1014.48 3694.86 1017.89 3717.72 1034.59 3736.57 1053.56 3758.93 1070.41 3768.37 1077.58 3878.98 1194.72 3887.07 1202.39 3910.59 1233.51 3941.58 1258.37 3965.24 1289.57 3975 1302.41 4126.25 1452.24 4180.51 1524.07 4187.3 1530.45 4225.59 1570.63 4236.86 1585.55 4243.7 1591.97 4250.55 1598.36 4257.39 1604.74 4274.07 1621.43 4290.67 1638.07 4307.36 1654.71 4372.84 1720.21 4523.5 1846.09 4526.46 1849.51 4538.77 1858.8 4569.06 1882.78 4572.6 1885.37 4580.31 1891.13 4586.7 1900.24 4594.37 1905.91 4597.66 1908.32 4615.27 1923.24 4621.28 1927.68 4643.55 1944.2 4663.78 1961.71 4686.64 1977.64 4689.19 1980.66 4740.62 2023.23 4748.17 2028.87 4772.61 2047.31 4793.88 2070.41 4818.62 2089.1 4823.92 2093.11 4855.94 2122.8 4867.29 2131.4 4888.32 2147.24 4903.91 2170.43 4924.98 2186.5 4929.7 2191.63 4982.21 2245.85 4985.21 2248.02 4997.19 2263.55 5010.45 2276.97 5022.37 2292.86 5034.6 2309.17 5086.54 2376.75 5099.22 2395.34 5133.84 2446.15 5171.37 2497.91 5195.32 2559.4 5215.51 2610.91 5224.14 2709.93 5195.32 2756.74Z"/>
<path transform="matrix(.1,0,0,-.1,0,792)" d="M3087.83 4802.05C3071.73 4802.15 3064.76 4802.09 3055.79 4799.49 3024.85 4790.5 2994.52 4780.78 2994.52 4728.18 2998.25 4728.25 3050.58 4727.82 3051.96 4729.01 3051.29 4758.56 3079.86 4778.15 3105.76 4763.62 3110.86 4760.76 3116.05 4754.27 3118.59 4749.52 3122.13 4739.15 3122.95 4733.87 3118.59 4722.61 3117.26 4718.03 3112.15 4715.11 3108.35 4712.35 3094.15 4702.13 3074.52 4702.97 3049.37 4702.98V4661.13C3064.48 4661.13 3097.03 4661.84 3107.04 4659.5 3124.95 4649.36 3125.74 4644.64 3126.99 4635.51 3128.25 4626.38 3124.71 4618.04 3122.45 4614.98 3118.84 4603.4 3096.92 4586.73 3073.73 4597.02 3054.77 4602.77 3052.04 4622.29 3049.41 4640.6 3033.77 4640.8 2993.58 4641.15 2989.25 4640.8 2989.25 4595.85 3013.62 4564.4 3050.69 4553.47 3092.9 4541.13 3151.51 4559.52 3168.56 4584.21 3180.94 4602.12 3187.57 4635.68 3174.96 4658.54 3171.32 4665.17 3172.52 4667.21 3145.54 4683.61 3167.2 4696.87 3189.42 4734.96 3168.56 4766.16 3153.48 4788.72 3125.43 4801.91 3087.83 4802.05" fill="#093254"/>
<path transform="matrix(.1,0,0,-.1,0,792)" d="M2651.28 4793.18C2650.29 4790.32 2651.36 4570.89 2651.28 4561.48H2706.63C2707.25 4598.04 2706.63 4774.43 2706.63 4793.27 2689.15 4793.18 2663.16 4793.18 2651.28 4793.18" fill="#093254"/>
<path transform="matrix(.1,0,0,-.1,0,792)" d="M3224.32 4792.58C3224.44 4786.05 3224.44 4575.54 3224.44 4561.48 3244.23 4561.48 3267.2 4561.39 3278.55 4561.48V4793.19C3266.02 4793.19 3227.66 4793.19 3224.32 4792.58" fill="#093254"/>
<path transform="matrix(.1,0,0,-.1,0,792)" d="M1108.98 5251.11C1082.63 5210.89 1078.4 5155.34 1066.7 5109.61 1059.72 5082.36 993.813 4853.29 988.984 4840.82 983.184 4825.95 976.813 4811.02 974.234 4795.18 982.973 4795.18 988.984 4798.63 996.715 4802.65 1008.38 4808.7 1022.13 4811.75 1034.86 4814.75 1065 4821.88 1094.71 4826.07 1125.49 4828.55 1156.32 4831.02 1187.48 4829.73 1218.39 4829.89 1248.46 4830.06 1278.13 4824.66 1307.82 4824.66 1320.25 4824.66 1333.63 4822.5 1346.04 4820.68 1359.54 4818.66 1373.29 4820.72 1386.73 4818.25 1400.63 4815.68 1414.71 4814.54 1428.66 4812.68 1444.95 4810.52 1462.36 4811.18 1478.2 4807.68 1506.91 4801.32 1536.4 4799.59 1565.55 4796.48 1579.82 4794.95 1594.13 4793.14 1608.2 4790.27 1624.29 4786.96 1640.8 4788.18 1657.18 4785 1669.88 4782.52 1682.38 4783.09 1695.2 4780.38 1709.57 4777.36 1724.14 4775.41 1738.7 4773.68 1769.97 4769.88 1801.36 4763.15 1832.74 4763.15 1857.79 4757.45 1884.48 4756.36 1910.04 4754.22 1924.4 4753.02 1938.84 4752.59 1953.14 4751.05 1969.29 4749.31 1986.52 4749.55 2002.32 4746.63 2055.79 4736.84 2112.07 4745.75 2165.91 4747.14 2225.89 4748.7 2287.38 4759.14 2346.11 4771.07 2360.04 4773.91 2371.95 4779.63 2385.02 4783.66 2400.93 4784.96 2414.25 4789.68 2429.32 4794.8 2443.97 4799.73 2458.68 4804.65 2473.45 4809.29 2479.36 4811.14 2485.43 4811.56 2491.5 4812.75 2499.65 4814.38 2504.79 4819.34 2513.16 4820.18 2527.25 4821.59 2541.45 4829.54 2555.04 4833.81 2569.79 4838.45 2584.65 4842.64 2599.27 4847.66 2630.95 4858.55 2662.41 4869.75 2694.43 4879.61 2755.57 4898.5 2817.11 4909.16 2879.63 4922.29 2936.13 4934.18 2990.31 4931 3047.5 4928.13 3106.11 4925.2 3167.22 4905.06 3223.64 4888.29 3288.27 4869.11 3352.54 4848.66 3416.72 4828.06 3447.43 4818.21 3478.13 4808.2 3508.71 4797.97 3539.95 4787.52 3570.88 4781.2 3602.55 4772.75 3630.04 4765.41 3662.25 4752.89 3690.75 4752.89 3717.48 4752.89 3744.16 4741.91 3770.98 4741.47 3791.52 4741.13 3810.23 4741.98 3830.72 4739.84 3855.75 4737.21 3881.06 4736.45 3906.25 4737.52 3929.04 4738.52 3951.05 4742.65 3973.91 4742.65 4001.06 4742.65 4030.81 4746.59 4057.59 4751.63 4081.11 4756.02 4106.18 4754.34 4130.16 4758.09 4158.77 4762.56 4188.32 4766.72 4217.34 4769.93 4271.56 4775.89 4324.79 4786.14 4378.73 4792.29 4432.65 4798.45 4486.93 4801.61 4540.52 4809.21 4591.82 4816.46 4644.72 4824.04 4696.45 4825.22 4719.18 4825.72 4741.59 4828.71 4764.27 4829.02 4786.93 4829.3 4809.22 4824.66 4831.61 4824.66 4858.04 4824.66 4886.25 4819.45 4912.27 4814.45 4936.18 4809.89 4957.31 4792.52 4981.09 4790.06 4979.5 4811.77 4964.64 4830.27 4962.48 4851.59 4959.45 4882.2 4943.21 4915.96 4934.04 4945.54 4916.64 5001.56 4901.59 5056.72 4886.25 5113.54 4873.3 5161.45 4871.38 5227.02 4832.59 5263.38 4813.86 5280.88 4786.96 5288.72 4762.61 5294.43 4733.15 5301.36 4701.41 5309.68 4671.25 5310.8 4618.11 5312.79 4564.06 5316.34 4510.84 5311.66 4480.96 5309.04 4451.18 5307.54 4421.14 5306.45 4409.46 5303.32 4397.04 5304 4385.23 5301.31 4368.09 5301.31 4352.11 5297.13 4335.09 5295.13 4274.82 5288 4215.34 5278.46 4155.2 5271.66 4126.75 5268.45 4098.79 5261.86 4070.27 5260.84 4041.63 5259.81 4012.75 5251.34 3984.18 5251.34 3936.38 5251.34 3888.98 5244.02 3840.97 5246.63 3815.25 5248.02 3787.2 5248.97 3762.52 5255.21 3749 5255.86 3736.65 5256.23 3723.61 5259.88 3708.88 5263.98 3693.81 5270.04 3678.59 5271.22 3648.65 5273.52 3616.11 5289.22 3587.11 5297.52 3553.45 5307.16 3520 5317.09 3486.77 5327.97 3421.54 5349.36 3356.93 5372.54 3292.21 5395.32 3234.95 5415.47 3176.34 5433.27 3116.63 5444.22 3063.88 5453.9 2978.45 5475.27 2863.25 5451.79 2831.13 5445.25 2798 5435.2 2766.4 5426.38 2739.7 5418.93 2712.05 5413.11 2686 5403.95 2671.21 5398.77 2656.4 5393.55 2641.77 5387.95 2627.09 5382.32 2612.27 5379.46 2597.88 5373.68 2572.25 5363.39 2544.65 5355.41 2518.25 5346.16 2486.59 5335.06 2454.64 5327.31 2423.04 5316.04 2362.04 5294.31 2301.95 5273.75 2238.25 5263.04 2208.5 5258.02 2178.65 5252.34 2148.61 5250.72 1996.91 5242.63 1977.04 5256.48 1928.4 5256.48 1900.88 5256.48 1874.43 5261.4 1847.41 5266.02 1815.49 5271.45 1782.96 5272.71 1751.22 5279.3 1737.73 5282.09 1723.95 5280.86 1710.43 5283.68 1695.99 5286.7 1681.36 5288.48 1666.7 5289.97 1634.43 5293.23 1602.89 5298.06 1570.86 5302.61 1511.27 5311.04 1376.61 5318.13 1252.82 5309.2 1224.4 5307.16 1193.66 5298 1166.59 5289.32 1143.59 5281.95 1122.57 5271.79 1108.98 5251.11" fill="#ffffff"/>
<path transform="matrix(.1,0,0,-.1,0,792)" stroke-width="20" stroke-linecap="butt" stroke-miterlimit="4" stroke-linejoin="miter" fill="none" stroke="#093254" d="M1108.98 5251.11C1082.63 5210.89 1078.4 5155.34 1066.7 5109.61 1059.72 5082.36 993.813 4853.29 988.984 4840.82 983.184 4825.95 976.813 4811.02 974.234 4795.18 982.973 4795.18 988.984 4798.63 996.715 4802.65 1008.38 4808.7 1022.13 4811.75 1034.86 4814.75 1065 4821.88 1094.71 4826.07 1125.49 4828.55 1156.32 4831.02 1187.48 4829.73 1218.39 4829.89 1248.46 4830.06 1278.13 4824.66 1307.82 4824.66 1320.25 4824.66 1333.63 4822.5 1346.04 4820.68 1359.54 4818.66 1373.29 4820.72 1386.73 4818.25 1400.63 4815.68 1414.71 4814.54 1428.66 4812.68 1444.95 4810.52 1462.36 4811.18 1478.2 4807.68 1506.91 4801.32 1536.4 4799.59 1565.55 4796.48 1579.82 4794.95 1594.13 4793.14 1608.2 4790.27 1624.29 4786.96 1640.8 4788.18 1657.18 4785 1669.88 4782.52 1682.38 4783.09 1695.2 4780.38 1709.57 4777.36 1724.14 4775.41 1738.7 4773.68 1769.97 4769.88 1801.36 4763.15 1832.74 4763.15 1857.79 4757.45 1884.48 4756.36 1910.04 4754.22 1924.4 4753.02 1938.84 4752.59 1953.14 4751.05 1969.29 4749.31 1986.52 4749.55 2002.32 4746.63 2055.79 4736.84 2112.07 4745.75 2165.91 4747.14 2225.89 4748.7 2287.38 4759.14 2346.11 4771.07 2360.04 4773.91 2371.95 4779.63 2385.02 4783.66 2400.93 4784.96 2414.25 4789.68 2429.32 4794.8 2443.97 4799.73 2458.68 4804.65 2473.45 4809.29 2479.36 4811.14 2485.43 4811.56 2491.5 4812.75 2499.65 4814.38 2504.79 4819.34 2513.16 4820.18 2527.25 4821.59 2541.45 4829.54 2555.04 4833.81 2569.79 4838.45 2584.65 4842.64 2599.27 4847.66 2630.95 4858.55 2662.41 4869.75 2694.43 4879.61 2755.57 4898.5 2817.11 4909.16 2879.63 4922.29 2936.13 4934.18 2990.31 4931 3047.5 4928.13 3106.11 4925.2 3167.22 4905.06 3223.64 4888.29 3288.27 4869.11 3352.54 4848.66 3416.72 4828.06 3447.43 4818.21 3478.13 4808.2 3508.71 4797.97 3539.95 4787.52 3570.88 4781.2 3602.55 4772.75 3630.04 4765.41 3662.25 4752.89 3690.75 4752.89 3717.48 4752.89 3744.16 4741.91 3770.98 4741.47 3791.52 4741.13 3810.23 4741.98 3830.72 4739.84 3855.75 4737.21 3881.06 4736.45 3906.25 4737.52 3929.04 4738.52 3951.05 4742.65 3973.91 4742.65 4001.06 4742.65 4030.81 4746.59 4057.59 4751.63 4081.11 4756.02 4106.18 4754.34 4130.16 4758.09 4158.77 4762.56 4188.32 4766.72 4217.34 4769.93 4271.56 4775.89 4324.79 4786.14 4378.73 4792.29 4432.65 4798.45 4486.93 4801.61 4540.52 4809.21 4591.82 4816.46 4644.72 4824.04 4696.45 4825.22 4719.18 4825.72 4741.59 4828.71 4764.27 4829.02 4786.93 4829.3 4809.22 4824.66 4831.61 4824.66 4858.04 4824.66 4886.25 4819.45 4912.27 4814.45 4936.18 4809.89 4957.31 4792.52 4981.09 4790.06 4979.5 4811.77 4964.64 4830.27 4962.48 4851.59 4959.45 4882.2 4943.21 4915.96 4934.04 4945.54 4916.64 5001.56 4901.59 5056.72 4886.25 5113.54 4873.3 5161.45 4871.38 5227.02 4832.59 5263.38 4813.86 5280.88 4786.96 5288.72 4762.61 5294.43 4733.15 5301.36 4701.41 5309.68 4671.25 5310.8 4618.11 5312.79 4564.06 5316.34 4510.84 5311.66 4480.96 5309.04 4451.18 5307.54 4421.14 5306.45 4409.46 5303.32 4397.04 5304 4385.23 5301.31 4368.09 5301.31 4352.11 5297.13 4335.09 5295.13 4274.82 5288 4215.34 5278.46 4155.2 5271.66 4126.75 5268.45 4098.79 5261.86 4070.27 5260.84 4041.63 5259.81 4012.75 5251.34 3984.18 5251.34 3936.38 5251.34 3888.98 5244.02 3840.97 5246.63 3815.25 5248.02 3787.2 5248.97 3762.52 5255.21 3749 5255.86 3736.65 5256.23 3723.61 5259.88 3708.88 5263.98 3693.81 5270.04 3678.59 5271.22 3648.65 5273.52 3616.11 5289.22 3587.11 5297.52 3553.45 5307.16 3520 5317.09 3486.77 5327.97 3421.54 5349.36 3356.93 5372.54 3292.21 5395.32 3234.95 5415.47 3176.34 5433.27 3116.63 5444.22 3063.88 5453.9 2978.45 5475.27 2863.25 5451.79 2831.13 5445.25 2798 5435.2 2766.4 5426.38 2739.7 5418.93 2712.05 5413.11 2686 5403.95 2671.21 5398.77 2656.4 5393.55 2641.77 5387.95 2627.09 5382.32 2612.27 5379.46 2597.88 5373.68 2572.25 5363.39 2544.65 5355.41 2518.25 5346.16 2486.59 5335.06 2454.64 5327.31 2423.04 5316.04 2362.04 5294.31 2301.95 5273.75 2238.25 5263.04 2208.5 5258.02 2178.65 5252.34 2148.61 5250.72 1996.91 5242.63 1977.04 5256.48 1928.4 5256.48 1900.88 5256.48 1874.43 5261.4 1847.41 5266.02 1815.49 5271.45 1782.96 5272.71 1751.22 5279.3 1737.73 5282.09 1723.95 5280.86 1710.43 5283.68 1695.99 5286.7 1681.36 5288.48 1666.7 5289.97 1634.43 5293.23 1602.89 5298.06 1570.86 5302.61 1511.27 5311.04 1376.61 5318.13 1252.82 5309.2 1224.4 5307.16 1193.66 5298 1166.59 5289.32 1143.59 5281.95 1122.57 5271.79 1108.98 5251.11Z"/>
<path transform="matrix(.1,0,0,-.1,0,792)" d="M2856.41 4592.22C2829.89 4592.22 2808.38 4608.27 2808.38 4628.07 2808.38 4647.88 2829.89 4663.91 2856.41 4663.91 2882.94 4663.91 2904.45 4647.88 2904.45 4628.07 2904.45 4608.27 2882.94 4592.22 2856.41 4592.22M2858.54 4769.24C2878.65 4769.24 2894.92 4754.29 2894.92 4735.86 2894.92 4717.42 2878.65 4702.46 2858.54 4702.46 2838.46 4702.46 2822.17 4717.42 2822.17 4735.86 2822.17 4754.29 2838.46 4769.24 2858.54 4769.24M2948.18 4653.41C2943.21 4660.95 2940.29 4667.79 2925.12 4675.18 2906.55 4680.82 2900.19 4682.11 2904.59 4686.74 2927.99 4692.75 2943.3 4708.42 2949.45 4727.74 2956.44 4749.63 2938.54 4775.35 2926.38 4784.11 2908.95 4796.69 2899.71 4797.28 2885.38 4800.78 2877.1 4802.79 2870.68 4803.48 2858.04 4803.82 2845.4 4804.19 2835.12 4802.84 2825.17 4799.49 2794.51 4789.18 2755.39 4764.82 2769.47 4723.7 2771.82 4716.64 2771.66 4715.31 2775.2 4709.8 2778.25 4704.98 2785.59 4695.85 2790.55 4693.12 2798.98 4688.53 2814.12 4687.11 2809.88 4681.5 2771.78 4677.16 2746 4637.23 2759.81 4600.88 2772.88 4566.44 2814.91 4549.38 2859.75 4549.63 2869.15 4550.04 2878.56 4550.47 2887.95 4550.91 2921.57 4561.39 2946.32 4577.11 2954.58 4613.7 2957.92 4628.51 2954.31 4644.03 2948.18 4653.41" fill="#093254"/>
<path transform="matrix(.1,0,0,-.1,0,792)" d="M2243.76 2213.41C1682.05 2997.02 1616.67 3811.9 1616.67 4451.26 1827.46 4451.26 4193.55 4445.99 4259.43 4448.62 4257.37 4009.23 4308.55 3102.63 3640.22 2185.28 3462.96 1941.94 3246.69 1709.87 2951.47 1471.25 2645.68 1713.2 2425.92 1959.3 2243.76 2213.41" fill="#ffffff"/>
<path transform="matrix(.1,0,0,-.1,0,792)" stroke-width="40" stroke-linecap="butt" stroke-miterlimit="4" stroke-linejoin="miter" fill="none" stroke="#093254" d="M2243.76 2213.41C1682.05 2997.02 1616.67 3811.9 1616.67 4451.26 1827.46 4451.26 4193.55 4445.99 4259.43 4448.62 4257.37 4009.23 4308.55 3102.63 3640.22 2185.28 3462.96 1941.94 3246.69 1709.87 2951.47 1471.25 2645.68 1713.2 2425.92 1959.3 2243.76 2213.41Z"/>
<path transform="matrix(.1,0,0,-.1,0,792)" d="M1919.53 3584.34H2391.5C2482.89 3584.34 2570.48 3583.93 2661.88 3583.93 2662.75 3583.93 2661.88 4070.91 2661.88 4228.54V4442.78H2653.11C2648.82 4440.1 2637.85 4441.48 2631.3 4441.48H2577.48 2376.32 1629.26C1626.83 4434.18 1628.01 4421.45 1628.01 4412.04V4349.21C1631.18 4343.96 1629.26 4329.98 1629.26 4322.3 1629.71 4300.12 1630.13 4277.88 1630.55 4255.7 1635.1 4234.76 1633.09 4208.14 1633.09 4183.91V4158.3C1639.94 4127.01 1638.27 4084.55 1638.27 4049.39 1638.69 4022.03 1639.1 3994.7 1639.52 3967.39 1644.02 3947.73 1639.6 3920.75 1644.64 3899.48 1655.87 3852.05 1652.95 3794.57 1663.88 3748.27 1664.3 3738.88 1664.71 3729.45 1665.13 3720.07 1675.39 3678.48 1678.8 3631.63 1688.23 3590.64 1688.73 3588.34 1688.73 3585.3 1688.66 3582.05 1759.98 3588.55 1845.16 3584.34 1919.53 3584.34" fill="#93bfe6"/>
<path transform="matrix(.1,0,0,-.1,0,792)" stroke-width="10" stroke-linecap="butt" stroke-miterlimit="4" stroke-linejoin="miter" fill="none" stroke="#93bfe6" d="M1919.53 3584.34H2391.5C2482.89 3584.34 2570.48 3583.93 2661.88 3583.93 2662.75 3583.93 2661.88 4070.91 2661.88 4228.54V4442.78H2653.11C2648.82 4440.1 2637.85 4441.48 2631.3 4441.48H2577.48 2376.32 1629.26C1626.83 4434.18 1628.01 4421.45 1628.01 4412.04V4349.21C1631.18 4343.96 1629.26 4329.98 1629.26 4322.3 1629.71 4300.12 1630.13 4277.88 1630.55 4255.7 1635.1 4234.76 1633.09 4208.14 1633.09 4183.91V4158.3C1639.94 4127.01 1638.27 4084.55 1638.27 4049.39 1638.69 4022.03 1639.1 3994.7 1639.52 3967.39 1644.02 3947.73 1639.6 3920.75 1644.64 3899.48 1655.87 3852.05 1652.95 3794.57 1663.88 3748.27 1664.3 3738.88 1664.71 3729.45 1665.13 3720.07 1675.39 3678.48 1678.8 3631.63 1688.23 3590.64 1688.73 3588.34 1688.73 3585.3 1688.66 3582.05 1759.98 3588.55 1845.16 3584.34 1919.53 3584.34Z"/>
<path transform="matrix(.1,0,0,-.1,0,792)" d="M3963.52 3584.21H4150.57C4163.59 3584.21 4189.95 3584 4211.21 3583.66V3590.64C4214.11 3599.28 4217.8 3615.63 4220.23 3625.26 4220.64 3633.77 4221.07 3642.33 4221.48 3650.87 4229.03 3681.19 4228.48 3720.95 4235.57 3752.1 4235.98 3764.49 4236.41 3776.88 4236.87 3789.27 4243.59 3816.64 4240.91 3854.5 4247.09 3882.79V3908.44C4250.41 3923.62 4248.59 3945.44 4252.25 3962.26V3989.16C4255.68 4005.04 4256.09 4022.39 4256.09 4041.66V4068.62C4258.89 4081.63 4257.36 4100.81 4257.36 4116V4208.26C4256.93 4262.95 4256.52 4317.63 4256.09 4372.28 4256.09 4394.71 4252.02 4421.37 4254.8 4438.94 4240.41 4446.23 4192.32 4441.48 4171.5 4441.48H3967.8 3255.21C3255.59 4293.64 3255.68 3584 3255.68 3583.17 3493.61 3583.17 3725.61 3584.21 3963.52 3584.21" fill="#93bfe6"/>
<path transform="matrix(.1,0,0,-.1,0,792)" stroke-width="10" stroke-linecap="butt" stroke-miterlimit="4" stroke-linejoin="miter" fill="none" stroke="#93bfe6" d="M3963.52 3584.21H4150.57C4163.59 3584.21 4189.95 3584 4211.21 3583.66V3590.64C4214.11 3599.28 4217.8 3615.63 4220.23 3625.26 4220.64 3633.77 4221.07 3642.33 4221.48 3650.87 4229.03 3681.19 4228.48 3720.95 4235.57 3752.1 4235.98 3764.49 4236.41 3776.88 4236.87 3789.27 4243.59 3816.64 4240.91 3854.5 4247.09 3882.79V3908.44C4250.41 3923.62 4248.59 3945.44 4252.25 3962.26V3989.16C4255.68 4005.04 4256.09 4022.39 4256.09 4041.66V4068.62C4258.89 4081.63 4257.36 4100.81 4257.36 4116V4208.26C4256.93 4262.95 4256.52 4317.63 4256.09 4372.28 4256.09 4394.71 4252.02 4421.37 4254.8 4438.94 4240.41 4446.23 4192.32 4441.48 4171.5 4441.48H3967.8 3255.21C3255.59 4293.64 3255.68 3584 3255.68 3583.17 3493.61 3583.17 3725.61 3584.21 3963.52 3584.21Z"/>
<path transform="matrix(.1,0,0,-.1,0,792)" d="M2662.2 3006.17C2384.49 3006.17 2114.7 3006.3 1837.73 3006.3 1837.9 3005.88 1837.94 3005.42 1838.14 3005.05 1849.41 2982.69 1871.22 2916.86 1875.27 2908.94 1889.7 2880.92 1901.88 2851.3 1913.77 2821.36 1919.32 2807.41 1924.78 2793.44 1930.41 2779.51 1933.42 2772 1955.23 2725.79 1961.16 2712.89 1963.2 2708.47 1974.12 2686.03 1976.55 2680.91 1986.47 2659.29 2021.59 2592.06 2027.77 2579.63 2039.49 2556.19 2055.79 2531.74 2068.77 2509.22 2072.15 2503.38 2096.51 2461.75 2104.68 2446.39 2110.35 2435.55 2188.44 2312.92 2222.56 2263.11 2264.9 2201.38 2358.46 2076.83 2360.92 2073.49 2371.68 2059.14 2493.19 1916.82 2500.61 1906.97 2505.24 1900.81 2601.01 1799.95 2662.12 1739.71 2661.87 1914.99 2662.2 2929.97 2662.2 3006.17" fill="#93bfe6"/>
<path transform="matrix(.1,0,0,-.1,0,792)" stroke-width="10" stroke-linecap="butt" stroke-miterlimit="4" stroke-linejoin="miter" fill="none" stroke="#93bfe6" d="M2662.2 3006.17C2384.49 3006.17 2114.7 3006.3 1837.73 3006.3 1837.9 3005.88 1837.94 3005.42 1838.14 3005.05 1849.41 2982.69 1871.22 2916.86 1875.27 2908.94 1889.7 2880.92 1901.88 2851.3 1913.77 2821.36 1919.32 2807.41 1924.78 2793.44 1930.41 2779.51 1933.42 2772 1955.23 2725.79 1961.16 2712.89 1963.2 2708.47 1974.12 2686.03 1976.55 2680.91 1986.47 2659.29 2021.59 2592.06 2027.77 2579.63 2039.49 2556.19 2055.79 2531.74 2068.77 2509.22 2072.15 2503.38 2096.51 2461.75 2104.68 2446.39 2110.35 2435.55 2188.44 2312.92 2222.56 2263.11 2264.9 2201.38 2358.46 2076.83 2360.92 2073.49 2371.68 2059.14 2493.19 1916.82 2500.61 1906.97 2505.24 1900.81 2601.01 1799.95 2662.12 1739.71 2661.87 1914.99 2662.2 2929.97 2662.2 3006.17Z"/>
<path transform="matrix(.1,0,0,-.1,0,792)" d="M3255.64 3005.84C3255.64 2867.02 3255.21 1883.13 3255.59 1753.74 3261.05 1759.07 3266.45 1764.58 3272 1769.84 3312.46 1808.38 3356.11 1846.59 3389.88 1891.54 3393.75 1894.97 3397.59 1898.4 3401.43 1901.81 3416.61 1921.91 3435.71 1938.86 3451.39 1958.2 3496.68 2014.18 3543.41 2068.65 3584.66 2128.64 3595.14 2143.91 3609.98 2158.1 3620.52 2173.45 3692.91 2278.88 3763.66 2383.67 3826.8 2498.96 3831.98 2508.3 3840.89 2517.73 3846.07 2527.15 3893.54 2613.92 3935.16 2704.6 3979.29 2794.9 3979.71 2797.91 3980.13 2800.87 3980.59 2803.87 3984.55 2811.92 3990.8 2822.81 3994.68 2830.77 3995.11 2834.2 3995.55 2837.61 3995.98 2841.04 4008.09 2866.27 4019.48 2895.8 4030.55 2921.79 4030.98 2925.63 4031.43 2929.46 4031.84 2933.3 4036.27 2943.15 4042.11 2957.49 4045.95 2967.88 4046.38 2971.72 4046.79 2975.6 4047.2 2979.43 4051.07 2988.07 4054.2 2997.45 4057.84 3006.25 3783.05 3005.46 3256.5 3005.84 3255.64 3005.84" fill="#93bfe6"/>
<path transform="matrix(.1,0,0,-.1,0,792)" stroke-width="10" stroke-linecap="butt" stroke-miterlimit="4" stroke-linejoin="miter" fill="none" stroke="#93bfe6" d="M3255.64 3005.84C3255.64 2867.02 3255.21 1883.13 3255.59 1753.74 3261.05 1759.07 3266.45 1764.58 3272 1769.84 3312.46 1808.38 3356.11 1846.59 3389.88 1891.54 3393.75 1894.97 3397.59 1898.4 3401.43 1901.81 3416.61 1921.91 3435.71 1938.86 3451.39 1958.2 3496.68 2014.18 3543.41 2068.65 3584.66 2128.64 3595.14 2143.91 3609.98 2158.1 3620.52 2173.45 3692.91 2278.88 3763.66 2383.67 3826.8 2498.96 3831.98 2508.3 3840.89 2517.73 3846.07 2527.15 3893.54 2613.92 3935.16 2704.6 3979.29 2794.9 3979.71 2797.91 3980.13 2800.87 3980.59 2803.87 3984.55 2811.92 3990.8 2822.81 3994.68 2830.77 3995.11 2834.2 3995.55 2837.61 3995.98 2841.04 4008.09 2866.27 4019.48 2895.8 4030.55 2921.79 4030.98 2925.63 4031.43 2929.46 4031.84 2933.3 4036.27 2943.15 4042.11 2957.49 4045.95 2967.88 4046.38 2971.72 4046.79 2975.6 4047.2 2979.43 4051.07 2988.07 4054.2 2997.45 4057.84 3006.25 3783.05 3005.46 3256.5 3005.84 3255.64 3005.84Z"/>
<path transform="matrix(.1,0,0,-.1,0,792)" d="M2797.69 3554.77 2957.53 3369.91 3122.38 3554.43H3255.52L3031.94 3291.82 3255.18 3037.2H3119.04L2957.61 3216.43 2797.35 3037.2 2660.54 3037.3 2835.89 3234.38 2887.79 3291.93 2661.88 3554.43" fill="#093254"/>
<path transform="matrix(.1,0,0,-.1,0,792)" d="M3020.51 4197C3020.51 4163.5 2992.98 4136.35 2959.06 4136.35 2925.16 4136.35 2897.62 4163.5 2897.62 4197 2897.62 4230.49 2925.16 4257.65 2959.06 4257.65 2992.98 4257.65 3020.51 4230.49 3020.51 4197" fill="#093254"/>
<path transform="matrix(.1,0,0,-.1,0,792)" d="M2904.64 3750.94H3012.8389V4112.62H2904.64Z" fill="#093254"/>
<path transform="matrix(.1,0,0,-.1,0,792)" d="M4250.01 2917.5C4250.01 2917.5 4277.5 3025 4462.5 3207.5 4647.5 3390 4617.5 3595 4617.5 3595L4602.5 3697.5C4602.5 3697.5 4810 3562.5 4835 3410 4835 3410 4966.82 3602.5 4944.66 3737.5 4944.66 3737.5 5055 3690 5082.5 3497.5 5110 3305 5030 3190.1 4887.5 2975.05L4860 2949.45 4666.49 3000C4666.49 3000 4552.21 3057.5 4497.35 2905 4442.5 2752.5 4420 2710 4372.5 2705 4325 2700 4280 2697.5 4247.5 2775 4247.5 2775 4232.98 2857.5 4250.01 2917.5" fill="#ffffff"/>
<path transform="matrix(.1,0,0,-.1,0,792)" stroke-width="20" stroke-linecap="butt" stroke-miterlimit="4" stroke-linejoin="miter" fill="none" stroke="#093254" d="M4250.01 2917.5C4250.01 2917.5 4277.5 3025 4462.5 3207.5 4647.5 3390 4617.5 3595 4617.5 3595L4602.5 3697.5C4602.5 3697.5 4810 3562.5 4835 3410 4835 3410 4966.82 3602.5 4944.66 3737.5 4944.66 3737.5 5055 3690 5082.5 3497.5 5110 3305 5030 3190.1 4887.5 2975.05L4860 2949.45 4666.49 3000C4666.49 3000 4552.21 3057.5 4497.35 2905 4442.5 2752.5 4420 2710 4372.5 2705 4325 2700 4280 2697.5 4247.5 2775 4247.5 2775 4232.98 2857.5 4250.01 2917.5Z"/>
<path transform="matrix(.1,0,0,-.1,0,792)" d="M4392.54 2646.66C4418.23 2631.21 4520 2570 4520 2570 4520 2570 4609.52 2642.2 4650 2715 4683.23 2774.78 4722.5 2813.75 4683.33 2899.45 4666.5 2935 4614.22 2963.43 4573.6 2928.58 4546.11 2905 4540 2861.67 4520 2785 4496.43 2724.41 4457.5 2657.5 4392.54 2646.66" fill="#ffffff"/>
<path transform="matrix(.1,0,0,-.1,0,792)" stroke-width="20" stroke-linecap="butt" stroke-miterlimit="4" stroke-linejoin="miter" fill="none" stroke="#093254" d="M4392.54 2646.66C4418.23 2631.21 4520 2570 4520 2570 4520 2570 4609.52 2642.2 4650 2715 4683.23 2774.78 4722.5 2813.75 4683.33 2899.45 4666.5 2935 4614.22 2963.43 4573.6 2928.58 4546.11 2905 4540 2861.67 4520 2785 4496.43 2724.41 4457.5 2657.5 4392.54 2646.66Z"/>
<path transform="matrix(.1,0,0,-.1,0,792)" d="M1689.6 2917.5C1689.6 2917.5 1662.11 3025 1477.11 3207.5 1292.11 3390 1322.11 3595 1322.11 3595L1337.11 3697.5C1337.11 3697.5 1129.61 3562.5 1104.61 3410 1104.61 3410 972.789 3602.5 994.949 3737.5 994.949 3737.5 884.609 3690 857.109 3497.5 829.609 3305 909.609 3190.1 1052.11 2975.05L1079.61 2949.45 1273.12 3000C1273.12 3000 1387.4 3057.5 1442.26 2905 1497.11 2752.5 1519.61 2710 1567.11 2705 1614.61 2700 1659.61 2697.5 1692.11 2775 1692.11 2775 1706.63 2857.5 1689.6 2917.5" fill="#ffffff"/>
<path transform="matrix(.1,0,0,-.1,0,792)" stroke-width="20" stroke-linecap="butt" stroke-miterlimit="4" stroke-linejoin="miter" fill="none" stroke="#093254" d="M1689.6 2917.5C1689.6 2917.5 1662.11 3025 1477.11 3207.5 1292.11 3390 1322.11 3595 1322.11 3595L1337.11 3697.5C1337.11 3697.5 1129.61 3562.5 1104.61 3410 1104.61 3410 972.789 3602.5 994.949 3737.5 994.949 3737.5 884.609 3690 857.109 3497.5 829.609 3305 909.609 3190.1 1052.11 2975.05L1079.61 2949.45 1273.12 3000C1273.12 3000 1387.4 3057.5 1442.26 2905 1497.11 2752.5 1519.61 2710 1567.11 2705 1614.61 2700 1659.61 2697.5 1692.11 2775 1692.11 2775 1706.63 2857.5 1689.6 2917.5Z"/>
<path transform="matrix(.1,0,0,-.1,0,792)" d="M1547.07 2646.66C1521.38 2631.21 1419.61 2570 1419.61 2570 1419.61 2570 1330.09 2642.2 1289.61 2715 1256.38 2774.78 1217.11 2813.75 1256.28 2899.45 1273.11 2935 1325.39 2963.43 1366.01 2928.58 1393.5 2905 1399.61 2861.67 1419.61 2785 1443.18 2724.41 1482.11 2657.5 1547.07 2646.66" fill="#ffffff"/>
<path transform="matrix(.1,0,0,-.1,0,792)" stroke-width="20" stroke-linecap="butt" stroke-miterlimit="4" stroke-linejoin="miter" fill="none" stroke="#093254" d="M1547.07 2646.66C1521.38 2631.21 1419.61 2570 1419.61 2570 1419.61 2570 1330.09 2642.2 1289.61 2715 1256.38 2774.78 1217.11 2813.75 1256.28 2899.45 1273.11 2935 1325.39 2963.43 1366.01 2928.58 1393.5 2905 1399.61 2861.67 1419.61 2785 1443.18 2724.41 1482.11 2657.5 1547.07 2646.66Z"/>
<path transform="matrix(.1,0,0,-.1,0,792)" d="M1522.02 4743.34C1522.02 4743.34 1159.27 4583.09 955.648 4686.66 955.648 4686.66 909.996 4750.63 1120 4763.64 1330 4776.66 1522.02 4743.34 1522.02 4743.34" fill="#ffffff"/>
<path transform="matrix(.1,0,0,-.1,0,792)" stroke-width="20" stroke-linecap="butt" stroke-miterlimit="4" stroke-linejoin="miter" fill="none" stroke="#093254" d="M1522.02 4743.34C1522.02 4743.34 1159.27 4583.09 955.648 4686.66 955.648 4686.66 909.996 4750.63 1120 4763.64 1330 4776.66 1522.02 4743.34 1522.02 4743.34Z"/>
<path transform="matrix(.1,0,0,-.1,0,792)" d="M4423.71 4743.34C4423.71 4743.34 4786.46 4583.09 4990.08 4686.66 4990.08 4686.66 5035.73 4750.63 4825.73 4763.64 4615.73 4776.66 4423.71 4743.34 4423.71 4743.34" fill="#ffffff"/>
<path transform="matrix(.1,0,0,-.1,0,792)" stroke-width="20" stroke-linecap="butt" stroke-miterlimit="4" stroke-linejoin="miter" fill="none" stroke="#093254" d="M4423.71 4743.34C4423.71 4743.34 4786.46 4583.09 4990.08 4686.66 4990.08 4686.66 5035.73 4750.63 4825.73 4763.64 4615.73 4776.66 4423.71 4743.34 4423.71 4743.34Z"/>
<path transform="matrix(.1,0,0,-.1,0,792)" d="M3042.86 5733.34C3042.86 5733.34 3073.33 5700 3113.33 5590 3153.33 5480 3140 5520 3140 5520 3140 5520 3140 5481.66 3225 5455 3310 5428.34 3384.17 5392.5 3390 5400 3395.83 5407.5 3354.86 5436.66 3326.67 5473.34 3298.48 5510 3243.6 5564.7 3166.67 5656.66 3089.73 5748.64 3048.66 5810.84 3046 5799.21 3037.82 5763.34 3042.86 5733.34 3042.86 5733.34" fill="#ffffff"/>
<path transform="matrix(.1,0,0,-.1,0,792)" stroke-width="20" stroke-linecap="butt" stroke-miterlimit="4" stroke-linejoin="miter" fill="none" stroke="#093254" d="M3042.86 5733.34C3042.86 5733.34 3073.33 5700 3113.33 5590 3153.33 5480 3140 5520 3140 5520 3140 5520 3140 5481.66 3225 5455 3310 5428.34 3384.17 5392.5 3390 5400 3395.83 5407.5 3354.86 5436.66 3326.67 5473.34 3298.48 5510 3243.6 5564.7 3166.67 5656.66 3089.73 5748.64 3048.66 5810.84 3046 5799.21 3037.82 5763.34 3042.86 5733.34 3042.86 5733.34Z"/>
<path transform="matrix(.1,0,0,-.1,0,792)" d="M2889.02 5733.34C2889.02 5733.34 2858.55 5700 2818.55 5590 2778.55 5480 2791.88 5520 2791.88 5520 2791.88 5520 2791.88 5481.66 2706.88 5455 2621.88 5428.34 2547.71 5392.5 2541.88 5400 2536.05 5407.5 2577.02 5436.66 2605.21 5473.34 2633.4 5510 2688.29 5564.7 2765.21 5656.66 2842.15 5748.64 2883.22 5810.84 2885.88 5799.21 2894.06 5763.34 2889.02 5733.34 2889.02 5733.34" fill="#ffffff"/>
<path transform="matrix(.1,0,0,-.1,0,792)" stroke-width="20" stroke-linecap="butt" stroke-miterlimit="4" stroke-linejoin="miter" fill="none" stroke="#093254" d="M2889.02 5733.34C2889.02 5733.34 2858.55 5700 2818.55 5590 2778.55 5480 2791.88 5520 2791.88 5520 2791.88 5520 2791.88 5481.66 2706.88 5455 2621.88 5428.34 2547.71 5392.5 2541.88 5400 2536.05 5407.5 2577.02 5436.66 2605.21 5473.34 2633.4 5510 2688.29 5564.7 2765.21 5656.66 2842.15 5748.64 2883.22 5810.84 2885.88 5799.21 2894.06 5763.34 2889.02 5733.34 2889.02 5733.34Z"/>
<path transform="matrix(.1,0,0,-.1,0,792)" d="M3292.23 6086.64C3278.27 6081.66 3266.88 6081.41 3257.5 6084.46 3248.13 6087.5 3273.73 6098.14 3273.73 6098.14 3273.73 6098.14 3322.8 6134.32 3343.87 6128.62 3364.95 6122.91 3384.64 6099.66 3384.64 6099.66 3384.64 6099.66 3417.78 6054.21 3393.89 5992.11 3370 5930 3372.62 5836.21 3391.3 5810.6 3410 5785 3421.14 5750.88 3398.89 5719.61 3376.64 5688.32 3379.16 5679.16 3365 5670 3350.84 5660.84 3339.3 5670.78 3311.45 5682.26 3283.59 5693.75 3236.64 5720.02 3254.17 5716.71 3271.7 5713.42 3285.69 5707.78 3302.45 5707.63 3319.2 5707.46 3329.28 5706.2 3341.3 5707.27 3353.34 5708.34 3353.98 5719.61 3353.98 5719.61 3353.98 5719.61 3353.39 5727.28 3352.95 5740.3 3352.51 5753.34 3304.09 5745.6 3225.95 5790.8 3147.82 5836.01 3109.75 5859.84 3109.75 5859.84 3109.75 5859.84 3065.78 5894.02 3062.46 5877.03 3059.14 5860.04 3060.54 5847.89 3060.54 5847.89L3082.5 5823.75C3082.5 5823.75 3212.48 5705.84 3241.25 5678.75 3270.01 5651.66 3372.5 5616.25 3372.5 5616.25 3372.5 5616.25 3416.25 5596.25 3470 5657.5 3523.75 5718.75 3523.75 5723.75 3523.75 5742.5 3523.75 5761.26 3493.75 5864.05 3496.25 5902.03 3498.75 5940 3509.98 6035 3523.75 6066.25 3537.51 6097.5 3540 6092.5 3491.25 6138.75 3442.5 6185 3408.32 6191.66 3385 6190 3361.68 6188.32 3303.23 6152.71 3264.02 6124.32 3224.8 6095.91 3123.34 6029.16 3070.95 6000.73 3065.01 5976.32 3062.42 5970.38 3062.46 5957.69 3062.5 5945 3113.03 5959.46 3155.38 5977.14 3197.73 5994.8 3260.19 6035.86 3296.3 6039.38 3332.44 6042.89 3351.39 6040.91 3363.2 6054.21 3375 6067.5 3346.76 6085.64 3335.88 6091.57 3325 6097.51 3292.23 6086.64 3292.23 6086.64" fill="#ffffff"/>
<path transform="matrix(.1,0,0,-.1,0,792)" stroke-width="20" stroke-linecap="butt" stroke-miterlimit="4" stroke-linejoin="miter" fill="none" stroke="#093254" d="M3292.23 6086.64C3278.27 6081.66 3266.88 6081.41 3257.5 6084.46 3248.13 6087.5 3273.73 6098.14 3273.73 6098.14 3273.73 6098.14 3322.8 6134.32 3343.87 6128.62 3364.95 6122.91 3384.64 6099.66 3384.64 6099.66 3384.64 6099.66 3417.78 6054.21 3393.89 5992.11 3370 5930 3372.62 5836.21 3391.3 5810.6 3410 5785 3421.14 5750.88 3398.89 5719.61 3376.64 5688.32 3379.16 5679.16 3365 5670 3350.84 5660.84 3339.3 5670.78 3311.45 5682.26 3283.59 5693.75 3236.64 5720.02 3254.17 5716.71 3271.7 5713.42 3285.69 5707.78 3302.45 5707.63 3319.2 5707.46 3329.28 5706.2 3341.3 5707.27 3353.34 5708.34 3353.98 5719.61 3353.98 5719.61 3353.98 5719.61 3353.39 5727.28 3352.95 5740.3 3352.51 5753.34 3304.09 5745.6 3225.95 5790.8 3147.82 5836.01 3109.75 5859.84 3109.75 5859.84 3109.75 5859.84 3065.78 5894.02 3062.46 5877.03 3059.14 5860.04 3060.54 5847.89 3060.54 5847.89L3082.5 5823.75C3082.5 5823.75 3212.48 5705.84 3241.25 5678.75 3270.01 5651.66 3372.5 5616.25 3372.5 5616.25 3372.5 5616.25 3416.25 5596.25 3470 5657.5 3523.75 5718.75 3523.75 5723.75 3523.75 5742.5 3523.75 5761.26 3493.75 5864.05 3496.25 5902.03 3498.75 5940 3509.98 6035 3523.75 6066.25 3537.51 6097.5 3540 6092.5 3491.25 6138.75 3442.5 6185 3408.32 6191.66 3385 6190 3361.68 6188.32 3303.23 6152.71 3264.02 6124.32 3224.8 6095.91 3123.34 6029.16 3070.95 6000.73 3065.01 5976.32 3062.42 5970.38 3062.46 5957.69 3062.5 5945 3113.03 5959.46 3155.38 5977.14 3197.73 5994.8 3260.19 6035.86 3296.3 6039.38 3332.44 6042.89 3351.39 6040.91 3363.2 6054.21 3375 6067.5 3346.76 6085.64 3335.88 6091.57 3325 6097.51 3292.23 6086.64 3292.23 6086.64Z"/>
<path transform="matrix(.1,0,0,-.1,0,792)" d="M2650.38 6086.64C2664.35 6081.66 2675.74 6081.41 2685.12 6084.46 2694.49 6087.5 2668.88 6098.14 2668.88 6098.14 2668.88 6098.14 2619.82 6134.32 2598.75 6128.62 2577.67 6122.91 2557.98 6099.66 2557.98 6099.66 2557.98 6099.66 2524.84 6054.21 2548.73 5992.11 2572.62 5930 2570 5836.21 2551.31 5810.6 2532.62 5785 2521.48 5750.88 2543.73 5719.61 2565.98 5688.32 2563.46 5679.16 2577.62 5670 2591.78 5660.84 2603.31 5670.78 2631.17 5682.26 2659.03 5693.75 2705.98 5720.02 2688.45 5716.71 2670.92 5713.42 2656.93 5707.78 2640.17 5707.63 2623.42 5707.46 2613.34 5706.2 2601.31 5707.27 2589.28 5708.34 2588.63 5719.61 2588.63 5719.61 2588.63 5719.61 2589.23 5727.28 2589.67 5740.3 2590.11 5753.34 2638.53 5745.6 2716.67 5790.8 2794.8 5836.01 2832.87 5859.84 2832.87 5859.84 2832.87 5859.84 2876.84 5894.02 2880.16 5877.03 2883.47 5860.04 2882.08 5847.89 2882.08 5847.89L2860.12 5823.75C2860.12 5823.75 2730.13 5705.84 2701.37 5678.75 2672.61 5651.66 2570.12 5616.25 2570.12 5616.25 2570.12 5616.25 2526.37 5596.25 2472.62 5657.5 2418.87 5718.75 2418.87 5723.75 2418.87 5742.5 2418.87 5761.26 2448.87 5864.05 2446.37 5902.03 2443.87 5940 2432.63 6035 2418.87 6066.25 2405.11 6097.5 2402.62 6092.5 2451.37 6138.75 2500.12 6185 2534.3 6191.66 2557.62 6190 2580.94 6188.32 2639.39 6152.71 2678.6 6124.32 2717.81 6095.91 2819.28 6029.16 2871.67 6000.73 2877.61 5976.32 2880.2 5970.38 2880.16 5957.69 2880.12 5945 2829.59 5959.46 2787.24 5977.14 2744.88 5994.8 2682.43 6035.86 2646.31 6039.38 2610.18 6042.89 2591.23 6040.91 2579.42 6054.21 2567.62 6067.5 2595.86 6085.64 2606.74 6091.57 2617.62 6097.51 2650.38 6086.64 2650.38 6086.64" fill="#ffffff"/>
<path transform="matrix(.1,0,0,-.1,0,792)" stroke-width="20" stroke-linecap="butt" stroke-miterlimit="4" stroke-linejoin="miter" fill="none" stroke="#093254" d="M2650.38 6086.64C2664.35 6081.66 2675.74 6081.41 2685.12 6084.46 2694.49 6087.5 2668.88 6098.14 2668.88 6098.14 2668.88 6098.14 2619.82 6134.32 2598.75 6128.62 2577.67 6122.91 2557.98 6099.66 2557.98 6099.66 2557.98 6099.66 2524.84 6054.21 2548.73 5992.11 2572.62 5930 2570 5836.21 2551.31 5810.6 2532.62 5785 2521.48 5750.88 2543.73 5719.61 2565.98 5688.32 2563.46 5679.16 2577.62 5670 2591.78 5660.84 2603.31 5670.78 2631.17 5682.26 2659.03 5693.75 2705.98 5720.02 2688.45 5716.71 2670.92 5713.42 2656.93 5707.78 2640.17 5707.63 2623.42 5707.46 2613.34 5706.2 2601.31 5707.27 2589.28 5708.34 2588.63 5719.61 2588.63 5719.61 2588.63 5719.61 2589.23 5727.28 2589.67 5740.3 2590.11 5753.34 2638.53 5745.6 2716.67 5790.8 2794.8 5836.01 2832.87 5859.84 2832.87 5859.84 2832.87 5859.84 2876.84 5894.02 2880.16 5877.03 2883.47 5860.04 2882.08 5847.89 2882.08 5847.89L2860.12 5823.75C2860.12 5823.75 2730.13 5705.84 2701.37 5678.75 2672.61 5651.66 2570.12 5616.25 2570.12 5616.25 2570.12 5616.25 2526.37 5596.25 2472.62 5657.5 2418.87 5718.75 2418.87 5723.75 2418.87 5742.5 2418.87 5761.26 2448.87 5864.05 2446.37 5902.03 2443.87 5940 2432.63 6035 2418.87 6066.25 2405.11 6097.5 2402.62 6092.5 2451.37 6138.75 2500.12 6185 2534.3 6191.66 2557.62 6190 2580.94 6188.32 2639.39 6152.71 2678.6 6124.32 2717.81 6095.91 2819.28 6029.16 2871.67 6000.73 2877.61 5976.32 2880.2 5970.38 2880.16 5957.69 2880.12 5945 2829.59 5959.46 2787.24 5977.14 2744.88 5994.8 2682.43 6035.86 2646.31 6039.38 2610.18 6042.89 2591.23 6040.91 2579.42 6054.21 2567.62 6067.5 2595.86 6085.64 2606.74 6091.57 2617.62 6097.51 2650.38 6086.64 2650.38 6086.64Z"/>
<path transform="matrix(.1,0,0,-.1,0,792)" d="M2754.51 6328.39C2760.49 6311.62 2760.79 6297.96 2757.13 6286.71 2753.48 6275.45 2740.71 6306.19 2740.71 6306.19 2740.71 6306.19 2697.28 6365.06 2704.13 6390.36 2710.98 6415.65 2738.88 6439.28 2738.88 6439.28 2738.88 6439.28 2793.42 6479.05 2867.96 6450.38 2942.5 6421.72 3055.07 6424.86 3085.78 6447.29 3116.51 6469.72 3157.45 6483.08 3194.98 6456.38 3232.53 6429.69 3243.53 6432.71 3254.51 6415.71 3265.51 6398.73 3253.61 6384.88 3239.8 6351.45 3226.02 6318.01 3194.49 6261.67 3198.45 6282.71 3202.41 6303.75 3209.18 6320.52 3209.38 6340.64 3209.56 6360.75 3211.09 6372.84 3209.8 6387.28 3208.5 6401.72 3194.98 6402.5 3194.98 6402.5 3194.98 6402.5 3185.76 6401.78 3170.14 6401.25 3154.51 6400.73 3163.8 6342.61 3109.54 6248.83 3055.31 6155.07 3041.46 6142.78 3041.46 6142.78 3041.46 6142.78 3012.5 6110.98 3026.58 6095.71 3041.46 6079.57 3044.65 6050.3 3044.65 6050.3L3066.94 6090.33C3066.94 6090.33 3211.51 6232.69 3244.02 6267.2 3276.53 6301.72 3319.03 6424.72 3319.03 6424.72 3319.03 6424.72 3343.02 6477.22 3269.52 6541.72 3196.01 6606.24 3190.01 6606.24 3167.51 6606.24 3145 6606.24 3021.64 6570.23 2976.06 6573.23 2930.5 6576.23 2816.49 6589.72 2778.98 6606.24 2741.48 6622.75 2747.47 6625.74 2691.98 6567.23 2636.47 6508.73 2628.47 6467.71 2630.47 6439.72 2632.47 6411.73 2675.21 6341.58 2709.3 6294.52 2743.38 6247.46 2845.12 6113.2 2879.23 6050.33 2901.5 6049.23 2890.15 6079.5 2893.43 6094.37 2899.08 6120.05 2923.02 6108.57 2885.94 6164.15 2855.37 6209.97 2815.45 6289.93 2811.23 6333.28 2807.01 6376.63 2809.39 6399.38 2793.44 6413.55 2777.48 6427.72 2755.7 6393.82 2748.59 6380.77 2741.48 6367.71 2754.51 6328.39 2754.51 6328.39" fill="#ffffff"/>
<path transform="matrix(.1,0,0,-.1,0,792)" stroke-width="20" stroke-linecap="butt" stroke-miterlimit="4" stroke-linejoin="miter" fill="none" stroke="#093254" d="M2754.51 6328.39C2760.49 6311.62 2760.79 6297.96 2757.13 6286.71 2753.48 6275.45 2740.71 6306.19 2740.71 6306.19 2740.71 6306.19 2697.28 6365.06 2704.13 6390.36 2710.98 6415.65 2738.88 6439.28 2738.88 6439.28 2738.88 6439.28 2793.42 6479.05 2867.96 6450.38 2942.5 6421.72 3055.07 6424.86 3085.78 6447.29 3116.51 6469.72 3157.45 6483.08 3194.98 6456.38 3232.53 6429.69 3243.53 6432.71 3254.51 6415.71 3265.51 6398.73 3253.61 6384.88 3239.8 6351.45 3226.02 6318.01 3194.49 6261.67 3198.45 6282.71 3202.41 6303.75 3209.18 6320.52 3209.38 6340.64 3209.56 6360.75 3211.09 6372.84 3209.8 6387.28 3208.5 6401.72 3194.98 6402.5 3194.98 6402.5 3194.98 6402.5 3185.76 6401.78 3170.14 6401.25 3154.51 6400.73 3163.8 6342.61 3109.54 6248.83 3055.31 6155.07 3041.46 6142.78 3041.46 6142.78 3041.46 6142.78 3012.5 6110.98 3026.58 6095.71 3041.46 6079.57 3044.65 6050.3 3044.65 6050.3L3066.94 6090.33C3066.94 6090.33 3211.51 6232.69 3244.02 6267.2 3276.53 6301.72 3319.03 6424.72 3319.03 6424.72 3319.03 6424.72 3343.02 6477.22 3269.52 6541.72 3196.01 6606.24 3190.01 6606.24 3167.51 6606.24 3145 6606.24 3021.64 6570.23 2976.06 6573.23 2930.5 6576.23 2816.49 6589.72 2778.98 6606.24 2741.48 6622.75 2747.47 6625.74 2691.98 6567.23 2636.47 6508.73 2628.47 6467.71 2630.47 6439.72 2632.47 6411.73 2675.21 6341.58 2709.3 6294.52 2743.38 6247.46 2845.12 6113.2 2879.23 6050.33 2901.5 6049.23 2890.15 6079.5 2893.43 6094.37 2899.08 6120.05 2923.02 6108.57 2885.94 6164.15 2855.37 6209.97 2815.45 6289.93 2811.23 6333.28 2807.01 6376.63 2809.39 6399.38 2793.44 6413.55 2777.48 6427.72 2755.7 6393.82 2748.59 6380.77 2741.48 6367.71 2754.51 6328.39 2754.51 6328.39Z"/>
<path transform="matrix(.1,0,0,-.1,0,792)" d="M2926.33 5891.98C2928.94 5869.34 2934.09 5855.16 2926.33 5828.65 2918.57 5802.13 2921.67 5797.81 2923.34 5770.31 2925.01 5742.81 2926.24 5741.66 2939.38 5730.99 2952.51 5720.31 2980.9 5717.02 2993.37 5723.25 3005.84 5729.48 3015 5751.98 3015 5751.98 3015 5751.98 3021.85 5760.11 3015 5785.31 3008.16 5810.51 3008.4 5805.31 3003.37 5833.65 2998.34 5861.98 2993.37 5885.67 2993.37 5885.67 2993.37 5885.67 2990.9 5928.64 2993.37 5945.31 2995.84 5961.98 3000.83 5981.15 3005 5991.98 3009.17 6002.81 3010.02 6028.92 3005.43 6043.37 3000.84 6057.81 2982.5 6063.94 2971.67 6063.94H2945.26C2945.26 6063.94 2917.41 6062.81 2908.29 6041.98 2899.17 6021.15 2902.14 6000.98 2908.29 5986.98 2914.45 5972.98 2922.65 5961.15 2926.33 5948.65 2930.01 5936.15 2923.72 5914.62 2926.33 5891.98" fill="#ffffff"/>
<path transform="matrix(.1,0,0,-.1,0,792)" stroke-width="20" stroke-linecap="butt" stroke-miterlimit="4" stroke-linejoin="miter" fill="none" stroke="#093254" d="M2926.33 5891.98C2928.94 5869.34 2934.09 5855.16 2926.33 5828.65 2918.57 5802.13 2921.67 5797.81 2923.34 5770.31 2925.01 5742.81 2926.24 5741.66 2939.38 5730.99 2952.51 5720.31 2980.9 5717.02 2993.37 5723.25 3005.84 5729.48 3015 5751.98 3015 5751.98 3015 5751.98 3021.85 5760.11 3015 5785.31 3008.16 5810.51 3008.4 5805.31 3003.37 5833.65 2998.34 5861.98 2993.37 5885.67 2993.37 5885.67 2993.37 5885.67 2990.9 5928.64 2993.37 5945.31 2995.84 5961.98 3000.83 5981.15 3005 5991.98 3009.17 6002.81 3010.02 6028.92 3005.43 6043.37 3000.84 6057.81 2982.5 6063.94 2971.67 6063.94H2945.26C2945.26 6063.94 2917.41 6062.81 2908.29 6041.98 2899.17 6021.15 2902.14 6000.98 2908.29 5986.98 2914.45 5972.98 2922.65 5961.15 2926.33 5948.65 2930.01 5936.15 2923.72 5914.62 2926.33 5891.98Z"/>
<path transform="matrix(.1,0,0,-.1,0,792)" d="M2954.7 5353.04C2978.08 5353.71 2993 5340.25 2998.25 5323.58 3005.7 5300.03 2977.94 5262.28 2964.65 5259.82 2957.98 5260.49 2952.74 5263.81 2958.54 5272.34 2964.31 5280.84 2966.47 5283.22 2967.51 5290.28 2953.54 5296.98 2938.95 5291.19 2931.64 5314.61 2927.94 5330.23 2932.62 5341.58 2939.63 5346.92 2946.4 5352.08 2945.96 5351.26 2954.7 5353.04" fill="#093254"/>
<path transform="matrix(.1,0,0,-.1,0,792)" d="M2893.18 5314.61C2905.98 5314.2 2905.98 5307.93 2907.47 5296.56 2909.11 5284 2909.84 5271.32 2910.32 5258.65 2910.82 5246.2 2910.99 5233.75 2911.07 5221.27 2911.14 5215.39 2909.95 5213.52 2904.06 5211.63 2895.32 5208.91 2893.34 5219.25 2890.09 5225.77 2879.33 5247.34 2869.57 5269.39 2845.23 5278.09 2820.55 5286.88 2795.82 5276.34 2778.22 5258.57 2741.76 5221.82 2739.8 5166.84 2750.48 5118.95 2757.82 5086.15 2787.98 5005 2836.8 5030.15 2863.81 5044.04 2859.1 5073.29 2856.58 5098.61 2855.14 5113.04 2852.97 5127.48 2849.63 5141.61 2836.66 5149.36 2828.57 5144.54 2815.39 5145.82 2801.74 5147.11 2807.04 5163.38 2817.18 5166.3 2828.82 5169.66 2841.08 5172.46 2852.93 5175.07 2867.17 5178.2 2881.58 5180.47 2895.74 5183.9 2908.55 5187 2921.69 5193.56 2922.14 5175.11 2922.71 5153.34 2920.29 5131.89 2923.71 5110.14 2927.01 5089.18 2928.42 5067.61 2928.21 5046.43 2928.09 5034.72 2924.04 5001.04 2907.11 5022.81 2888.55 5046.61 2870.66 5020.39 2851.09 5008.91 2806.31 4982.61 2755.2 4994.27 2718.19 5029.9 2680.16 5066.52 2669.15 5130.71 2679.41 5180.36 2688.94 5226.54 2713.23 5268.59 2755.39 5291.75 2779.97 5305.29 2802.29 5308.04 2830.05 5307.36 2843.04 5307.06 2852.97 5299.86 2864.82 5295.64 2886 5288.11 2881.16 5304.59 2893.18 5314.61" fill="#093254"/>
<path transform="matrix(.1,0,0,-.1,0,792)" d="M2665.1 5258.24C2680.01 5262.16 2678.27 5246.74 2670.19 5241.72 2661.82 5236.58 2652.98 5230.32 2650.46 5220.23 2645.74 5201.37 2648.08 5182.73 2649.43 5163.43 2651.25 5137.43 2657.38 5018.15 2660.43 5002.36 2663.51 4986.25 2667.18 4967.98 2665.12 4951.57 2664.16 4943.92 2659.22 4937.42 2651.69 4935.22 2638.15 4931.25 2628.31 4942.97 2620.8 4953.16 2612.81 4964.05 2572.9 5005.82 2562.25 5017.64 2539.26 5043.19 2515.27 5067.85 2492.27 5093.44 2481.9 5104.95 2482.74 5093.5 2484.9 5084.61 2486.14 5067.28 2488.95 5001.67 2491.16 4977.48 2493 4957.62 2495.48 4934.68 2519.48 4933.6 2532.43 4933.01 2545.97 4928.87 2532.54 4916.16 2527.66 4911.55 2506.05 4907.82 2489.41 4904.28 2472.79 4900.76 2463.84 4898.2 2451.96 4894.63 2440.09 4891.1 2426.59 4882.27 2421.5 4894.59 2417.91 4903.23 2435.75 4910.18 2441.75 4914.7 2452.5 4922.76 2456.77 4932.35 2458.46 4945.44 2461.57 4969.85 2452.79 5074.79 2450.76 5102.99 2449.66 5118.42 2451.62 5144.3 2435.69 5153.95 2425.96 5159.83 2401.81 5153.06 2398.58 5167.26 2392.3 5175.04 2460.71 5191.01 2478.42 5198.34 2495.71 5205.48 2507.78 5180.52 2516.46 5169.81 2520.88 5164.34 2545.78 5136.27 2553.85 5127.42 2565.58 5114.58 2609.75 5062.36 2622.81 5059.6 2626.77 5071.08 2620.93 5120.04 2619.94 5133.69 2619.11 5145.26 2616.79 5196.29 2608.58 5205.42 2599.9 5215.06 2586.59 5211.26 2575.42 5210.81 2559.55 5214.43 2565.74 5223.32 2581.3 5228.6 2596.19 5233.65 2653.76 5249.76 2665.1 5258.24" fill="#093254"/>
<path transform="matrix(.1,0,0,-.1,0,792)" d="M1233.8 5181.33C1208.29 5180.35 1187.13 5166.75 1178.58 5142.86 1176.78 5137.84 1169.06 5122.34 1161.1 5127.84 1150.38 5135.26 1161.03 5150.61 1163.56 5158.83 1167.02 5170.04 1168.48 5181.73 1171.86 5192.95 1175.22 5204.06 1193.32 5204.71 1203.35 5206.57 1233.05 5212.07 1261.72 5219.04 1291.95 5221.69 1305.91 5222.9 1367.07 5232.96 1371.95 5219.06 1377.96 5201.96 1368.61 5178.02 1367.25 5160.54 1366.71 5153.61 1359.64 5148.11 1352.97 5150.57 1349.26 5158.7 1348.36 5167.8 1344.9 5176.04 1341.33 5184.48 1335.51 5188.32 1326.77 5190.23 1312.34 5193.41 1304.69 5189.99 1300.93 5176.23 1293.61 5149.4 1291.72 5120.38 1286.28 5093.02 1281.08 5066.86 1276.01 5040.74 1272.45 5014.3 1270.59 5000.45 1269.8 4986.45 1269.67 4972.46 1276.93 4967.05 1278.89 4964.88 1288.28 4964.14 1296.35 4963.54 1298.49 4963.49 1303.79 4957.74 1318.02 4942.24 1268.75 4943.77 1262.7 4944.1 1240.72 4945.21 1213.09 4943.29 1191.52 4937.88 1178.89 4934.71 1166.1 4931.34 1153.09 4930.19 1143.24 4942.43 1148.87 4944.76 1162.01 4951.48 1172.11 4956.63 1182.99 4962.04 1189.84 4971.46 1195.7 4979.51 1197.05 4995.32 1199.6 5005.1 1206.93 5033.65 1210.57 5062.04 1217.43 5090.72 1221.16 5106.29 1222.04 5123.04 1226.42 5138.17 1230.42 5151.99 1235.11 5166.75 1233.8 5181.33" fill="#093254"/>
<path transform="matrix(.1,0,0,-.1,0,792)" d="M1378.6 5224.91C1407.9 5225.23 1437.27 5224.91 1466.49 5222.44 1480.13 5221.32 1493.75 5219.73 1507.22 5217.23 1513.44 5216.09 1519.88 5217.23 1521.24 5209.86 1522.98 5200.26 1516.54 5199.3 1508.95 5198.15 1499.21 5196.67 1484.53 5196.17 1478.94 5186.33 1473.77 5177.22 1474.52 5162.55 1471.97 5152.31 1468.91 5139.88 1465.64 5126.84 1466.34 5113.92 1466.93 5103.59 1486.57 5104.41 1495.77 5102.48 1506.51 5100.23 1549.56 5089.59 1554.73 5101.87 1564.03 5124.01 1562.78 5151.47 1562.03 5174.95 1561.41 5194.25 1532.14 5188.37 1531.31 5202.8 1530.39 5218.57 1549.77 5211.69 1559.27 5209.53 1576.63 5205.59 1595.4 5204.4 1613.08 5204.4 1625.99 5200.93 1673.44 5199.58 1674.9 5184.83 1675.95 5173.98 1651.33 5174.48 1643.85 5173.65 1636.94 5163.01 1631.86 5159.42 1629.29 5145.7 1624.64 5120.92 1623.68 5096.12 1619.76 5071.29 1615.21 5042.45 1612 5013.83 1608.39 4984.93 1606.74 4971.72 1605.95 4957.93 1608.12 4944.68 1609.66 4935.05 1630.83 4930.09 1638.72 4922.49 1632.04 4903.77 1606.27 4915.16 1592.48 4918.01 1564.99 4923.67 1537.05 4927.88 1509.14 4929.13 1502.67 4929.45 1488.54 4931.24 1490.49 4941.27 1492.5 4951.49 1511.31 4949.07 1518.74 4950.86 1536.13 4955 1535.05 4973.75 1538.97 4987.89 1544.07 5006.27 1548.39 5025.5 1547.77 5044.69 1547.2 5062.28 1534.15 5061.55 1518.65 5064.08 1503.57 5066.57 1487.76 5068.4 1472.47 5066.94 1454.6 5065.2 1455.68 5043.19 1454.08 5028.24 1452.12 5010.15 1444.63 4986.45 1450.45 4968.86 1456.21 4951.4 1478.23 4959.08 1483.68 4944.3 1492.96 4930.97 1456.25 4935.6 1452.22 4936.39 1430.99 4940.63 1407.86 4939.44 1386.26 4941.01 1371.95 4942.05 1334.57 4936.55 1332.47 4955.82 1345.36 4963.81 1364.29 4962.5 1374.58 4974.7 1385.11 4987.19 1384.97 5009.63 1386.72 5024.94 1390.93 5061.94 1395.77 5098.9 1401.54 5135.6 1404.74 5155.95 1406.61 5177.77 1401.67 5198.01 1390.13 5203.42 1374.3 5209.86 1378.6 5224.91" fill="#093254"/>
<path transform="matrix(.1,0,0,-.1,0,792)" d="M4579.49 5205.68C4621.17 5206.29 4667.42 5206.68 4707.39 5193.43 4713.76 5191.32 4720.57 5188.63 4725.53 5183.91 4723.03 5176.81 4717.31 5174.81 4710.14 5174.94 4693.41 5186.29 4689.45 5159.55 4690.2 5150.58 4691.71 5133.62 4695.71 5117.06 4699.92 5100.61 4706.38 5075.26 4708.14 5048.22 4714.23 5022.47 4718.47 5004.42 4718.06 4974.24 4728.33 4958.83 4737 4945.72 4764.03 4944.63 4775.62 4953.32 4787.61 4962.27 4783.3 4978.85 4783.26 4992.36 4783.22 4999.53 4780.81 5006.13 4786.73 5010.61 4792.81 5015.26 4797.06 5008.23 4798.98 5001.71 4802.16 4990.73 4811.71 4943.85 4816.08 4931.84 4818.67 4924.85 4829.02 4904.35 4817.59 4902.85 4809.08 4901.75 4799.06 4905.06 4790.9 4906.9 4736.76 4919.16 4683.78 4925.24 4628.38 4929.55 4618.08 4930.37 4608.98 4941.33 4622.84 4946.31 4631.72 4949.53 4638.44 4942.97 4646.66 4951.6 4662.25 4968.05 4640.64 5060.18 4635.89 5085.04 4633.17 5099.1 4630.76 5113.2 4627.6 5127.14 4624.54 5140.54 4625.46 5156.19 4618.45 5168.14 4611.37 5180.31 4602.9 5185.33 4589.38 5187.71 4583.43 5188.74 4576.75 5190.34 4574.32 5196.71 4570.99 5201.47 4576.57 5202.59 4579.49 5205.68" fill="#093254"/>
<path transform="matrix(.1,0,0,-.1,0,792)" d="M3443.86 5206.43C3454.7 5207.38 3479.73 5203.54 3500.05 5191.75 3509.3 5186.36 3515.01 5177.52 3523.53 5171.33 3538.04 5160.75 3529.95 5171.72 3543.97 5180.4 3557.98 5189.07 3554.48 5149.43 3553.98 5145.36 3552.55 5133.89 3558.06 5098.64 3540.46 5096.37 3528.87 5094.89 3528.91 5112.84 3526.32 5120.92 3522.69 5132.1 3518.26 5143.28 3511.43 5152.91 3497.75 5172.3 3469.92 5180.88 3448.24 5169.51 3429.12 5159.51 3422.25 5132.89 3437.89 5116.58 3445.73 5108.42 3489.46 5084.84 3500.91 5078.63 3519.77 5068.44 3543.38 5053.79 3552.06 5033.57 3562.9 5008.51 3566.23 4985.68 3556.94 4959.66 3539.47 4911.06 3498.04 4879.98 3445.35 4889.06 3424.76 4892.63 3408.97 4900.45 3393.14 4913.61 3388.97 4917.07 3378.83 4927.41 3372.4 4925.06 3362.36 4922.28 3357.73 4900.76 3348.09 4913.51 3342.1 4921.23 3356.05 4940.94 3351.93 4985.29 3351.8 5006.17 3351.08 5014.88 3353.2 5019.88 3360.08 5028.9 3369.76 5024.9 3372.4 5012.2 3375.1 5000.53 3376.98 4984.73 3378.79 4978.71 3382.38 4966.98 3386.71 4955.23 3394.73 4945.75 3407.4 4930.7 3426.75 4920.78 3446.27 4918.89 3490.32 4914.61 3522.94 4968.46 3485.48 4999.8 3449.27 5030.12 3391.67 5045.62 3372.4 5092.93 3363.92 5113.82 3364.64 5143.35 3375.24 5163.45 3380.71 5173.76 3389.9 5183.23 3399.12 5190.08 3403.36 5193.21 3424.84 5204.76 3443.86 5206.43" fill="#093254"/>
<path transform="matrix(.1,0,0,-.1,0,792)" d="M3078.96 5309.75C3101.93 5310.05 3126.04 5308.87 3146.36 5297.08 3155.63 5291.74 3161.32 5282.88 3169.84 5276.67 3184.34 5266.07 3178.93 5281.59 3190.43 5285.39 3206.91 5296.57 3200.82 5254.78 3200.3 5250.73 3198.86 5239.26 3204.39 5204.02 3186.75 5201.71 3175.21 5200.21 3175.23 5218.19 3172.64 5226.28 3169.05 5237.45 3164.57 5248.6 3157.77 5258.24 3144.09 5277.64 3116.25 5286.23 3094.57 5274.89 3075.46 5264.84 3068.57 5238.21 3084.21 5221.95 3092.07 5213.77 3135.77 5190.2 3147.23 5183.99 3166.09 5173.76 3189.68 5159.12 3198.39 5138.94 3209.23 5113.87 3212.57 5091.04 3203.27 5065 3185.8 5016.39 3144.36 4985.32 3091.66 4994.41 3071.07 4997.95 3055.29 5005.79 3039.46 5018.93 3035.3 5022.45 3025.16 5032.74 3018.73 5030.41 3008.68 5027.66 3004.05 5006.1 2994.41 5018.87 2988.43 5026.61 3002.38 5046.25 2998.25 5090.63 2998.13 5111.49 2996.68 5119.33 2999.52 5125.21 3003.36 5134.69 3015.71 5133.69 3018.73 5117.54 3021.05 5108.99 3023.3 5090.08 3025.11 5084.09 3028.71 5072.33 3033.04 5060.6 3041.05 5051.1 3053.73 5036.08 3073.07 5026.14 3092.63 5024.23 3136.68 5019.96 3169.25 5073.83 3131.8 5105.16 3095.61 5135.46 3038 5150.96 3018.73 5198.28 3010.23 5219.19 3010.98 5248.68 3021.57 5268.78 3027.02 5279.13 3037.21 5287.16 3046.43 5293.98 3050.68 5297.14 3055.07 5300.11 3059.68 5302.66 3065.52 5305.87 3069.11 5307.54 3078.96 5309.75" fill="#093254"/>
<path transform="matrix(.1,0,0,-.1,0,792)" d="M1687.42 5189.04C1701.5 5189.26 1715.41 5186.95 1729 5183.43 1742.19 5180.04 1755.97 5180.99 1768.84 5177.16 1782.52 5173.1 1795.99 5173.88 1809.84 5170.49 1825.79 5166.54 1841.96 5163.33 1858.23 5161.11 1868.62 5159.68 1890.39 5162.26 1896.92 5154.43 1903.11 5147.01 1896.92 5129.92 1895.47 5120.51 1893.97 5110.63 1893.47 5060.72 1875 5075.7 1866.32 5082.74 1869.74 5097.33 1866.63 5107 1863.52 5116.67 1853.89 5123.17 1845.38 5127.67 1831.57 5134.98 1788.52 5150.64 1783.52 5129.25 1779.18 5110.63 1777.01 5090.95 1776.51 5071.86 1776.31 5063.68 1774.7 5057.05 1784.52 5055.96 1792.2 5055.13 1810.01 5050.55 1815.34 5058.71 1821.33 5067.83 1830.33 5087.88 1842.46 5089.09 1850.8 5076.66 1848.47 5072.3 1845.02 5058.34 1844.3 5044 1843.24 5031.13 1839.79 5017.22 1837.99 5009.88 1839.16 4952.13 1821.46 4973.81 1814.2 4982.68 1817.43 4994.65 1812.99 5004.49 1807.46 5016.74 1792.91 5020.07 1780.9 5021.72 1769.42 5023.29 1766.97 5011.77 1767.34 5001.71 1767.8 4989.13 1765.59 4978.45 1763.33 4966.18 1761.12 4954.07 1759.39 4941.13 1761.75 4928.9 1774.63 4925.95 1787.48 4922.45 1800.62 4920.61 1821.63 4917.73 1843.63 4920.54 1855.27 4940.43 1858.65 4946.2 1868.94 4993.96 1879.93 4980.89 1888.41 4970.82 1882.75 4960.79 1881.32 4949.86 1879.42 4935.67 1879.54 4921.91 1877 4907.66 1874.87 4895.67 1879.62 4875.79 1864.13 4872.95 1853.51 4871.01 1836.07 4878.95 1824.38 4879.98 1796.2 4882.5 1769.61 4891.46 1741.23 4893.02 1724.79 4897.55 1708.15 4901.31 1691.29 4903.82 1677.07 4905.97 1650.92 4901.01 1645.12 4917.36 1648.29 4917.36 1647.16 4921.77 1650.67 4923.01 1656.93 4925.2 1663.6 4925.38 1670.14 4925.5 1684.67 4925.81 1690.65 4937.93 1692.48 4950.86 1696.74 4980.72 1704.69 5010.91 1706 5041.04 1707.46 5074.58 1716.95 5107 1717.11 5141.06 1717.18 5153.49 1713.76 5165.8 1700.06 5170.14 1689.86 5173.38 1680.33 5175.89 1687.42 5189.04" fill="#093254"/>
<path transform="matrix(.1,0,0,-.1,0,792)" d="M4551.3 4995.53C4547.38 4981.39 4533.74 4949.6 4510.26 4943.01 4473.47 4932.64 4451.11 4979.37 4442.34 5000.67 4423 5047.58 4413.36 5127.99 4444.93 5168.52 4453.24 5179.22 4459.45 5183.44 4476.96 5185.2 4531.28 5185.89 4555.39 5073.95 4555.89 5026.74 4554.05 5006.88 4555.14 5009.72 4551.3 4995.53M4613.79 5084.74C4606.19 5120.21 4595.47 5152.62 4568.65 5178.44 4542.22 5203.88 4506.58 5213.73 4470.55 5213.37 4444.52 5210.38 4440.06 5208.55 4426.38 5201.86 4410.74 5194.21 4397.56 5181.98 4387.13 5168.18 4366.02 5140.29 4357.8 5106.86 4359.43 5072.28 4369.85 4960.5 4446.69 4921.19 4477.64 4914.78 4515.76 4905.84 4570.45 4933.72 4594.43 4967.19 4618.54 5000.79 4622.3 5045.09 4613.79 5084.74" fill="#093254"/>
<path transform="matrix(.1,0,0,-.1,0,792)" d="M2381.91 5169.8C2392.13 5169.8 2398.04 5163.05 2393.45 5157 2390.36 5154.37 2379.77 5149.12 2373.86 5143.84 2363.27 5134.39 2360.61 5120.38 2361.06 5106.79 2362.31 5067.86 2365.88 5028.66 2369.73 4989.87 2379.36 4893.43 2384.2 4900.98 2396.75 4900.82 2418.06 4900.09 2415.72 4900.09 2417.79 4891.75 2420.39 4877.73 2320.66 4862.98 2306.27 4860.05 2291.88 4857.11 2287.54 4854 2279.4 4862.25 2279.5 4874.61 2285.36 4874 2294.95 4879.43 2311.18 4888.62 2312.93 4908.02 2311 4925.21 2306.38 4966.34 2301.2 5008.16 2301.2 5049.61 2301.2 5067.8 2299.55 5088.11 2295.04 5105.84 2293.29 5112.77 2290.2 5120.46 2283.25 5123.68 2273.15 5123.68 2265.75 5120.66 2262.34 5131.66 2257.52 5147.29 2321.29 5153.71 2381.91 5169.8" fill="#093254"/>
<path transform="matrix(.1,0,0,-.1,0,792)" d="M4282.18 4972.46C4275.84 4938.8 4268.09 4919.25 4241.18 4912.25 4217.02 4905.96 4202.09 4929.21 4193.75 4940.43 4163.09 4981.73 4148.54 5063.44 4171.97 5121.13 4188.59 5166.42 4222.4 5153.57 4230.96 5153.16 4258.91 5142.08 4271.46 5090.76 4279.64 5058.34 4282.64 5046.39 4288.52 5006.17 4282.18 4972.46M4255.31 5183.91C4216.94 5194.78 4206.35 5188.77 4196.34 5189.82L4180.07 5187.7C4141.78 5173.51 4141.37 5166.14 4124.01 5144.44 4109.84 5126.71 4085.01 5065.64 4089.89 5022.56 4094.14 4985.41 4109.16 4939.47 4139.44 4915.19 4167.77 4892.56 4207.85 4872.84 4245.06 4881.48 4316.81 4898.22 4354.14 4959.2 4357.84 5029.2 4361.18 5092.89 4313.79 5167.34 4255.31 5183.91" fill="#093254"/>
<path transform="matrix(.1,0,0,-.1,0,792)" d="M4074.62 5153.16C4081.25 5153.16 4092.38 5150.66 4087.97 5140.66 4086.01 5136.18 4072.2 5132.39 4067.82 5127.15 4051.85 5107.98 4059.36 5044 4063.03 5014.69 4066.7 4985.36 4069.79 4899.31 4087.42 4891.75 4095.81 4891.75 4109.24 4895.64 4113.92 4886.99 4120.92 4874.14 4104.07 4872.69 4094.97 4871.02 4070.44 4866.43 4046.3 4863.2 4021.73 4858.58 4010.38 4856.45 3998.55 4854.53 3986.93 4855.34 3975.34 4856.13 3978.1 4866.6 3986.45 4870.53 3998.45 4876.15 4008.13 4879 4007.96 4894.55 4007.72 4911.62 4006.22 4928.63 4004.83 4945.63 4004.12 4954.08 4006.76 4981.15 3998.24 4983.06 3987.48 4985.43 3979.69 4982.62 3969.54 4980.72 3954.07 4977.83 3917.99 4983.48 3914.37 4964.92 3913.45 4929.59 3915.24 4919.49 3914.86 4896.23 3914.7 4887.12 3916.87 4874.52 3926.8 4870.25 3933.63 4867.31 3944.69 4870.2 3949.36 4863.14 3959.67 4847.62 3917.41 4848.05 3908.11 4846.62 3887.38 4843.46 3866.32 4841.62 3845.37 4841.08 3837.54 4840.87 3829.48 4840.7 3821.68 4841.93 3814.47 4843.09 3810.13 4853.11 3818.35 4856.34 3836.11 4863.34 3848.92 4865.51 3850.55 4886.88 3853.38 4923.29 3852.26 4968.11 3848.89 4996.24 3845.54 5024.36 3843.62 5049.3 3841.38 5075.65 3840.46 5085.99 3841.53 5101.56 3831.15 5107.03 3822.6 5111.54 3815.17 5117.38 3819.6 5122.39 3824.09 5127.42 3841.87 5125.55 3853.38 5125.38 3865.81 5125.21 3861.73 5124.09 3893.93 5127.51 3926.21 5130.97 3933.21 5138.25 3938.07 5129.25 3947.48 5111.72 3918.5 5114.33 3911.86 5105.73 3899.72 5090.01 3906.1 5057.32 3908.27 5039.41 3908.86 5034.51 3909.02 5016.06 3914.45 5016.06 3922.04 5011.02 3936.55 5014.59 3945.24 5015.64 3958.58 5017.25 3985.53 5016.31 3996.45 5025.02 4003.09 5032.49 3997.67 5055.14 3997.25 5064.15 3996.57 5078.28 3998.13 5105.17 3987.61 5115.21 3979.82 5122.67 3964.91 5120.96 3961.83 5128.8 3958.83 5136.65 3976.35 5136.92 3986.45 5138.99 4000.88 5141.94 4053.1 5146.57 4074.62 5153.16" fill="#093254"/>
<path transform="matrix(.1,0,0,-.1,0,792)" d="M2009.03 5137.77C1995.93 5130.68 2007.51 5121.33 2019.9 5119.91 2030.35 5118.75 2037.04 5112.2 2041.9 5103.19 2052 5085.96 2047.33 5045.59 2045.99 5022.56 2044.66 4999.53 2042.88 4877.36 2008.97 4873.91 1999.67 4872.96 1986.82 4867.48 1995.9 4857.13 2002.17 4849.96 2015.56 4852.87 2023.86 4852.52 2052.27 4851.34 2081.42 4848.79 2109.83 4846.7 2118.07 4846.1 2134.78 4841.56 2140.78 4849.78 2146.97 4858.21 2137.32 4864.14 2129.79 4864.59 2101.08 4866.25 2102.54 4890.96 2101.74 4913.86 2101.32 4925.43 2100.99 4938.38 2105.14 4949.4 2107.2 4954.86 2120.11 4975.47 2125.12 4972.6 2132.62 4968.28 2146.91 4929.24 2151.63 4918.99 2158.74 4903.56 2165.06 4887.79 2172.07 4872.31 2174.99 4865.81 2178.03 4859.4 2181.32 4853.05 2185.96 4844.04 2190.34 4846.83 2199.72 4847.06 2213.48 4847.4 2227.29 4848.32 2240.87 4850.76 2252.78 4852.87 2264.65 4851.68 2275.55 4857.15 2276.14 4876.41 2265.37 4868.44 2252.48 4876.36 2243.19 4882.12 2206.77 4957.71 2193.55 4985.29 2187 4999.02 2177.19 5011.25 2173.25 5026.17 2169.23 5041.37 2179.8 5046.96 2188.2 5058.48 2202.98 5078.62 2216.03 5103.02 2239.6 5114.12 2246.06 5117.16 2252.74 5119.96 2257.12 5125.92 2263.56 5134.72 2261.23 5137.68 2253.78 5137.77 2239.89 5137.71 2227.85 5134.68 2212.78 5132.64 2197.7 5130.61 2175.82 5137.37 2167.6 5130.81 2162.35 5126.59 2160.34 5120.17 2167.89 5115.35 2187.94 5102.52 2158.18 5074.32 2149.12 5061.64 2139.89 5048.72 2130.4 5035.97 2121.47 5022.83 2115.91 5014.65 2106.06 5001.2 2106.62 5018.97 2107.33 5040.88 2108.56 5063.44 2114.13 5084.74 2120.22 5108.08 2130.58 5107.88 2151.79 5114.19 2160.68 5116.84 2157.05 5127.64 2149.54 5129.15 2143.39 5130.43 2137.02 5130.3 2130.77 5130.13 2117.67 5129.8 2104.9 5132.43 2091.94 5132.11 2064.03 5131.47 2011.95 5139.35 2009.03 5137.77" fill="#093254"/>
<path transform="matrix(.1,0,0,-.1,0,792)" d="M3692.99 5097.56 3688.91 5137.77" fill="#093254"/>
<path transform="matrix(.1,0,0,-.1,0,792)" d="M3717.12 4859.6 3720.24 4828.89" fill="#093254"/>
<path transform="matrix(.1,0,0,-.1,0,792)" d="M3811.61 4922.48C3793.88 4920.96 3790.42 4890.31 3777.23 4881.07 3761.54 4869.98 3741.53 4861.03 3722.26 4859.59 3720.49 4859.44 3718.82 4859.56 3717.12 4859.59V4859.6C3669.15 4860.29 3647.83 4918.81 3643.32 4958.24 3637.27 5010.26 3643.49 5063.79 3689.7 5095.58 3690.77 5096.32 3691.89 5096.87 3692.99 5097.56L3692.97 5097.71C3714.01 5110.65 3737.93 5112.03 3757.64 5094.35 3773.97 5079.69 3780.95 5057.73 3790.75 5038.75 3793.79 5032.81 3801.67 5019.94 3808.86 5031.74 3814.53 5041.03 3813.1 5045.16 3811.61 5060.9 3801.77 5094.08 3817.36 5120.33 3809.02 5137.77 3802.85 5141.02 3796.34 5132.39 3792.42 5122.39 3783.32 5111.58 3774.4 5115.24 3762.56 5121.93 3738.07 5135.76 3716.63 5138.18 3688.59 5137.77L3688.6 5137.68C3657.48 5128.16 3663.12 5131.23 3651.5 5124.55 3638.56 5117.06 3626.39 5108.14 3615.46 5097.83 3591.81 5075.39 3581 5049.68 3573.78 5018.46 3563.14 4972.53 3577.13 4915.31 3605.19 4878.19 3630 4845.46 3679.44 4828.61 3719.92 4828.9V4828.89H3719.97 3720.23V4828.92C3746.25 4829.27 3772.71 4847.53 3790.71 4865.06 3805.02 4878.98 3823.28 4903.3 3811.61 4922.48" fill="#093254"/>
<path transform="matrix(.1,0,0,-.1,0,792)" d="M2501.43 1301.17C2472.06 1322.99 2444.91 1349.34 2416.88 1372.96 2408.78 1372.58 2409.29 1370.41 2405.32 1366.57 2407.1 1354.9 2422.41 1348.81 2416.88 1331.95 2412.67 1319.15 2399.92 1309.89 2392.52 1299.92 2375.62 1277.15 2356.96 1257.13 2339.98 1234.55 2336.56 1231.59 2333.53 1226.72 2330.12 1223.71 2323.05 1214.25 2301.21 1187.21 2291.28 1183.29 2285.36 1178.79 2273.72 1182.33 2266.94 1184.63 2260.17 1186.88 2258.37 1183.34 2254.12 1179.46 2250.03 1168.98 2271.01 1156.98 2281.06 1149.97 2286.61 1146.08 2292.2 1140 2297.71 1135.92 2309.66 1127.06 2326.11 1112.59 2333.58 1106.42 2341.04 1100.24 2348.47 1107.92 2347.68 1112.81 2346.88 1117.71 2344.8 1120.26 2337.42 1134.62 2330.03 1148.96 2362.15 1174.66 2388.69 1207.66 2390.89 1208.48 2389.93 1207.91 2391.22 1208.9 2410.37 1208.65 2426.89 1189.01 2432.23 1175.62 2437.61 1162.22 2418.09 1139.08 2407.89 1121.81 2403.28 1113.97 2398.65 1102.46 2396.35 1093.62 2396.35 1088.52 2395.19 1082.68 2395.19 1077.56 2394.29 1072.97 2395.41 1061.92 2397.65 1055.15 2401.65 1043.14 2411.33 1035.05 2419.42 1027 2425.14 1021.33 2448.51 1002.1 2466.93 1008.82 2470.6 1010.14 2473.5 1011.57 2474.52 1012.86 2477.61 1021.83 2466.14 1020.45 2457.88 1025.71 2454.25 1028.01 2451.25 1028.49 2448.91 1035.96 2446.58 1043.4 2445.24 1059.25 2448.91 1068.01 2457.07 1087.53 2472.56 1104.79 2478.36 1126.94 2482.74 1143.53 2465.3 1162.19 2462.99 1173.03 2481.95 1165.98 2490.96 1163.64 2500.16 1162.82 2509.35 1161.98 2513.65 1163.9 2517.32 1164.99 2549.08 1174.37 2570.48 1205.49 2555.26 1244.81 2545.64 1269.64 2521.49 1286.32 2501.43 1301.17M1299.34 2339.02C1281.55 2335.35 1275.66 2319.84 1256.66 2330.48 1246.44 2336.19 1237.43 2346.03 1232.83 2356.79 1245.57 2373.4 1258.35 2385.91 1274.43 2399.01 1286.61 2408.93 1287.15 2410.69 1300.92 2399.59 1308.53 2393.5 1315.98 2387.16 1322.92 2380.32 1337.33 2366.13 1349.05 2353.34 1338.88 2332.72 1332.58 2320.01 1320.34 2306.66 1326.49 2291.51 1338.84 2289.14 1345.97 2305.04 1352.96 2312.96 1360.74 2321.84 1367.85 2331.31 1375.75 2340.11 1382.17 2347.21 1390.22 2350.62 1390.64 2360.34 1376.38 2367.21 1365.47 2379.74 1354.52 2390.75 1342.51 2402.75 1329.04 2413.03 1316.15 2424.04 1291.09 2445.39 1271.32 2472.17 1250.28 2497.23 1245.36 2496.79 1244.9 2496.03 1240.56 2493.07 1242.24 2482.1 1250.18 2477.52 1248.59 2465.91 1247.48 2457.69 1243.02 2450.72 1237.39 2444.8 1223.04 2429.88 1207.32 2415.98 1192.6 2401.35 1174.75 2383.58 1155.64 2367.39 1137.29 2350.2 1123.12 2336.86 1112.05 2325.18 1091.74 2322.26 1085.48 2326.6 1078.39 2329.47 1072.84 2334.77 1067.29 2332.94 1066.85 2331.02 1063.54 2328.05 1065.96 2316.59 1129.26 2250.17 1139.16 2239.92 1147.06 2231.66 1149.09 2233.66 1155.43 2241.72 1152.03 2251.43 1143.98 2257.18 1145.73 2268.75 1147.01 2277.04 1153.14 2282.96 1159.06 2288.3 1166.84 2295.32 1196.81 2323.84 1203.02 2332.52 1223.96 2335.95 1223.84 2324.34 1239.14 2309.83 1241.9 2298.78 1242.52 2286.55 1236.77 2276.3 1231.39 2266.79 1228.65 2265.56 1237.23 2257.61 1250.37 2260.6 1260.57 2279.87 1269.55 2289.06 1282.29 2302.02 1294.83 2315.33 1306.01 2329.76 1304.3 2336.02 1302.52 2335.57 1299.34 2339.02M3517.57 1037.08C3509.56 1039.67 3504.72 1046.67 3500.38 1053.39 3494.71 1062.15 3471.32 1096.31 3463.75 1103.85 3463.75 1125.05 3475.16 1123.05 3491.95 1135.89 3503.3 1136.8 3515.49 1135.48 3524.66 1128.13 3533.21 1121.3 3533.96 1118.42 3543.21 1125.62 3542.35 1139.06 3524.99 1152.21 3517.35 1162.55 3506.55 1177.19 3495.47 1191.7 3482.98 1205.05 3476.52 1204.37 3476.69 1202.54 3472.77 1199.96 3473.56 1181.78 3487.91 1173.51 3474.4 1156.46 3467.1 1147.28 3455.96 1139.98 3444.58 1137.14 3430.27 1152.41 3419.92 1167 3409.58 1184.94 3401.71 1198.58 3400.07 1199.37 3413.22 1211.23 3420.5 1217.72 3427.93 1224.07 3435.81 1229.82 3452.08 1241.8 3466.6 1251.35 3485.32 1237.97 3496.87 1229.74 3508.06 1215.48 3523.98 1219.15 3528.33 1230.96 3513.82 1240.55 3507.1 1248.68 3499.59 1257.81 3491.37 1266.37 3483.95 1275.54 3477.98 1283.05 3475.9 1291.51 3466.35 1293.47 3457.29 1280.51 3443.15 1271.75 3430.56 1262.69 3416.76 1252.77 3404.49 1241.13 3391.55 1230.15 3366.47 1208.85 3336.87 1193.62 3308.73 1176.85 3308.41 1171.93 3309.05 1171.35 3311.31 1166.59 3322.4 1166.51 3328.23 1173.59 3339.41 1170.18 3347.34 1167.75 3353.5 1162.24 3358.4 1155.75 3370.87 1139.24 3382.08 1121.46 3394.16 1104.56 3408.82 1084.09 3421.76 1062.65 3435.81 1041.8 3446.66 1025.69 3456.46 1012.85 3456.09 992.313 3450.79 986.902 3446.83 980.313 3440.74 975.723 3441.66 969.922 3443.45 969.211 3445.83 965.461 3457.5 966.004 3533.21 1017.85 3544.97 1025.94 3554.39 1032.45 3552.72 1034.77 3545.76 1042.28 3535.67 1040.55 3528.66 1033.48 3517.57 1037.08M1885.8 1611.24C1893.83 1623 1971.71 1701.5 2001.24 1729.7 2012.52 1740.47 2022.25 1750.48 2038.32 1745.47 2044.73 1743.5 2047.81 1736.49 2054.42 1738.71 2060.86 1740.88 2062.24 1744.96 2062.02 1751.06 2054.53 1755.94 2050.4 1763.49 2043.14 1768.66 2035.53 1774 2028.69 1781.09 2021.86 1787.43 2008.1 1800.27 1995.59 1814.37 1982.33 1827.72 1962.53 1826.63 1980.72 1806.95 1980.24 1796.86 1979.46 1780.55 1954.21 1761.98 1942.99 1749.88 1927.25 1732.96 1867.45 1672.21 1853.18 1659.71 1841.8 1649.7 1831.97 1644.73 1812.77 1657.54 1797.12 1660.05 1798.79 1647.21 1811.6 1633.51 1827.11 1620.79 1840.15 1606.06 1854.83 1592.38 1864.45 1583.46 1878.71 1562.76 1890.1 1574.4 1889.26 1581.2 1886.83 1581.75 1881.63 1591.97 1876.42 1602.22 1881.63 1605.15 1885.8 1611.24M3716.28 1199.79C3705.85 1194.96 3703.14 1200.25 3697.22 1204.64 3685.75 1213.06 3610.09 1293.73 3582.97 1324.23 3572.63 1335.85 3562.95 1345.95 3568.46 1361.84 3570.7 1368.14 3577.79 1371.01 3575.79 1377.69 3573.88 1384.2 3569.87 1385.75 3563.7 1385.75 3558.6 1378.41 3550.89 1374.57 3545.52 1367.48 3539.88 1360.06 3532.58 1353.46 3525.99 1346.87 3512.64 1333.6 3498.12 1321.6 3484.29 1308.83 3484.66 1288.97 3505.02 1306.49 3515.07 1305.65 3531.33 1304.29 3549.01 1278.39 3560.66 1266.75 3577.05 1250.4 3635.61 1188.45 3647.62 1173.76 3657.22 1162.04 3661.81 1152.04 3648.29 1133.3 3645.29 1117.74 3658.13 1118.95 3672.31 1131.26 3685.59 1146.32 3700.77 1158.84 3714.95 1173.02 3724.21 1182.31 3745.39 1195.84 3734.14 1207.63 3727.34 1207.05 3726.71 1204.64 3716.28 1199.79M3819.35 1539.96C3803.3 1549.58 3786.73 1550.42 3768.76 1553.59 3762.41 1549.68 3752.9 1552.09 3745.9 1551.64 3738.43 1551.13 3730.63 1547.67 3723.79 1544.84 3703.93 1536.57 3652.05 1480.51 3639.62 1465.33 3631.61 1455.5 3622.43 1446.73 3613.76 1437.56 3608.79 1432.25 3604.45 1424.37 3598.32 1420.33 3598.74 1412.86 3600.58 1413.06 3603.45 1408.78 3619.27 1411.27 3625.06 1423.33 3641.79 1415.11 3650.88 1410.69 3657.56 1402.94 3665.07 1396.42 3686.34 1378.15 3744.74 1322.6 3753.57 1314.71 3761.75 1307.45 3769.88 1299.66 3776.17 1290.69 3788.49 1273.08 3767.74 1258.28 3781.56 1244.76 3793.74 1247.26 3805.14 1264.77 3812.47 1273.58 3821.93 1284.88 3831.33 1295.73 3841.67 1306.33 3871.29 1336.56 3903.23 1366.69 3902.95 1411.7 3902.68 1449.35 3882.97 1484.01 3857.02 1510.22 3845.75 1521.55 3833.08 1531.7 3819.35 1539.96M4240.31 1800.87C4228.58 1814.12 4215.16 1827.98 4204.39 1841.91 4197.3 1841.1 4197.3 1838.48 4192.88 1835.49 4196.14 1809.36 4226.66 1799.9 4219.25 1768.83 4214.74 1749.88 4199.14 1737.3 4185.2 1726.57 4171.28 1715.85 4102.78 1793.52 4084.76 1812.5 4075.71 1822.05 4042.38 1856.76 4042.85 1866.84 4043.43 1880.19 4061.65 1900.21 4037.83 1900.8 4024.07 1885.83 3971.64 1832.44 3959.68 1820.13 3960.26 1812.59 3962.38 1812.46 3966.04 1808.58 3974.9 1810.55 3977.66 1817.55 3987.41 1817.55 4000.42 1817.55 4004.3 1815.29 4014.01 1807.16 4032.22 1791.97 4100.19 1725.28 4117.29 1707.34 4129.85 1694.16 4149.16 1675.89 4135.27 1656.79 4125.31 1643.1 4138.08 1636.72 4148.99 1646.02 4160.67 1656.04 4253.28 1752.06 4269.79 1767.58 4268.21 1781.84 4248.94 1791.01 4240.31 1800.87M4365.91 1862.39C4348.54 1865.63 4338.37 1848.61 4321.82 1863.68 4307.68 1876.61 4243.44 1950.86 4237.76 1958.48 4230.29 1968.46 4200.47 1998.49 4198.01 2011.04 4195.56 2023.6 4209.15 2033.19 4210.82 2040.54 4212.49 2047.88 4211.74 2047.79 4209.35 2051.87 4206.23 2057.22 4198.01 2046.91 4198.01 2046.91 4158.17 2010.93 4110.91 1968.37 4111.92 1966.87 4112.05 1966.63 4108.37 1958.86 4116.8 1959.32 4130.6 1962.87 4132.81 1969.55 4145.5 1970.04 4158.1 1970.55 4162.26 1960.37 4168.52 1953.36 4190.67 1928.62 4279.47 1837.69 4282.77 1822.3 4285.65 1811.75 4278.3 1798.69 4274.76 1789.8 4271.22 1780.93 4277.43 1778.68 4281.31 1780.42 4296.57 1787.18 4366.15 1847.08 4368.4 1853.43 4369.48 1854.75 4370.87 1861.42 4365.91 1862.39M1693.49 1956.16C1702.69 1955.32 1706.98 1957.24 1710.66 1958.33 1742.42 1967.71 1763.82 1998.83 1748.59 2038.15 1738.98 2062.98 1714.82 2079.66 1694.76 2094.51 1665.39 2116.33 1638.25 2142.68 1610.21 2166.3 1602.12 2165.92 1602.62 2163.75 1598.66 2159.91 1600.43 2148.24 1615.74 2142.15 1610.21 2125.29 1606.01 2112.49 1593.26 2103.23 1585.86 2093.26 1568.96 2070.49 1550.29 2050.47 1533.32 2027.89 1529.9 2024.93 1526.87 2020.06 1523.45 2017.05 1516.39 2007.59 1494.55 1980.55 1484.62 1976.63 1478.7 1972.13 1467.06 1975.67 1460.28 1977.97 1453.5 1980.22 1451.7 1976.68 1447.46 1972.8 1443.36 1962.32 1464.35 1950.32 1474.4 1943.31 1479.95 1939.42 1485.54 1933.34 1491.04 1929.26 1503 1920.4 1519.45 1905.93 1526.91 1899.76 1534.38 1893.58 1541.8 1901.26 1541.01 1906.15 1540.22 1911.05 1538.13 1913.6 1530.76 1927.96 1523.37 1942.3 1555.49 1968 1582.02 2001 1584.23 2001.82 1583.27 2001.25 1584.56 2002.24 1603.7 2001.99 1620.22 1982.35 1625.56 1968.96 1630.94 1955.56 1611.43 1932.42 1601.22 1915.15 1596.62 1907.31 1591.98 1895.8 1589.69 1886.96 1589.69 1881.86 1588.52 1876.02 1588.52 1870.9 1587.63 1866.31 1588.75 1855.26 1590.99 1848.49 1594.98 1836.48 1604.67 1828.39 1612.75 1820.34 1618.48 1814.67 1641.85 1795.44 1660.27 1802.16 1663.93 1803.48 1666.84 1804.91 1667.86 1806.2 1670.95 1815.17 1659.48 1813.79 1651.22 1819.05 1647.59 1821.35 1644.58 1821.83 1642.25 1829.3 1639.91 1836.74 1638.57 1852.59 1642.25 1861.35 1650.4 1880.87 1665.9 1898.13 1671.69 1920.28 1676.08 1936.87 1658.64 1955.53 1656.32 1966.37 1675.28 1959.32 1684.3 1956.98 1693.49 1956.16M1857.46 1839.44C1866.62 1847.75 1892.23 1875.78 1897.4 1877.65 1909.12 1872.6 1916.82 1863.35 1922.72 1856.42 1925.95 1852.59 1927.02 1847.83 1930.39 1844.32 1931.98 1829.14 1926.39 1819.42 1919.63 1811.03 1920.8 1803.7 1922.64 1804.03 1925.89 1800.07 1941.7 1801.86 1960.35 1829.98 1972.08 1839.57 1971.85 1842.16 1971.56 1844.66 1971.31 1847.24 1961.8 1852.17 1837.13 1979.71 1819.65 1995.33 1808.43 1992.23 1785.53 1962 1778.98 1952.53 1779.77 1945.69 1780.94 1944.06 1786.39 1942.93 1789.91 1942.1 1803.3 1952.44 1816.19 1953.78 1823.2 1951.89 1823.32 1953.78 1830.54 1945.94 1833.83 1942.34 1847.7 1926.82 1851.43 1923.83 1851.6 1922.16 1851.79 1920.49 1851.96 1918.74 1827.41 1890.29 1764.02 1819.71 1757.05 1813.71 1751.49 1808.95 1733.85 1790.35 1728.94 1786.43 1724.55 1782.89 1724.63 1782.63 1719.37 1779 1705.5 1777.09 1696.97 1776.62 1689.15 1784.93 1682.7 1783.92 1676.03 1781.26 1677.47 1776.04 1690.89 1758.61 1737.31 1715.53 1757.58 1695.28 1782.96 1698.95 1757.63 1712.77 1760.59 1729.12 1761.5 1734.37 1766.22 1741.25 1769.2 1745.43 1772.1 1749.55 1791.83 1770.83 1798.21 1776.72 1808.59 1786.39 1846.68 1829.65 1857.46 1839.44M2151.78 1604.31C2163.1 1598.39 2170.11 1588.63 2175.49 1581.3 2178.46 1577.29 2179.16 1572.4 2182.29 1568.7 2182.79 1553.44 2176.54 1544.13 2169.19 1536.25 2169.82 1528.82 2171.65 1529.06 2174.62 1524.9 2190.51 1525.55 2211.11 1552.25 2223.54 1560.93 2223.46 1563.52 2223.37 1566.11 2223.29 1568.66 2214.18 1574.28 2098.95 1710.39 2082.64 1727.2 2071.21 1724.94 2046.23 1696.41 2039.01 1687.44 2039.3 1680.56 2040.34 1678.9 2045.71 1677.39 2049.14 1676.23 2063.27 1685.6 2076.22 1686.03 2083.06 1683.66 2083.3 1685.56 2089.94 1677.23 2092.98 1673.4 2105.71 1656.86 2109.21 1653.66 2109.29 1651.96 2109.34 1650.27 2109.38 1648.53 2082.85 1621.92 2014.59 1556.09 2007.2 1550.59 2001.32 1546.25 1982.37 1528.9 1977.2 1525.31 1972.56 1522.15 1972.65 1521.89 1967.14 1518.64 1953.17 1517.71 1944.62 1517.88 1937.4 1526.69 1930.89 1526.14 1924.05 1523.98 1925.14 1518.68 1937.28 1500.37 1980.49 1454.03 1999.24 1432.37 2024.83 1434.26 2000.56 1449.82 2004.64 1465.92 2005.96 1471.09 2011.15 1477.64 2014.42 1481.6 2017.61 1485.48 2038.8 1505.29 2045.6 1510.71 2056.65 1519.64 2097.74 1560.07 2109.19 1569.03 2118.93 1576.62 2146.48 1602.81 2151.78 1604.31M3155.3 1101.19C3145.45 1096.93 2967.85 1080.92 2944.7 1077.24 2939.99 1066.57 2948.95 1029.73 2952.17 1018.68 2957.96 1014.93 2959.97 1014.84 2964.26 1018.36 2967.16 1020.52 2967.6 1037.45 2974.71 1048.3 2980.57 1052.55 2979.19 1053.84 2989.83 1054.47 2994.71 1054.71 3015.5 1055.73 3020.16 1056.72 3021.58 1055.8 3023.04 1054.85 3024.45 1053.89 3030.98 1016.89 3045.62 923.16 3045.87 913.992 3046.06 906.652 3049.34 881.203 3049.27 874.941 3049.23 869.281 3049.48 869.191 3049 862.844 3041.72 850.844 3036.67 843.941 3025.3 843.16 3021.99 837.492 3019.86 830.652 3024.8 828.473 3046.77 827.902 3109.5 836.613 3138 839.531 3151.18 861.512 3124.48 850.633 3113.67 863.211 3110.18 867.273 3107.83 875.273 3106.47 880.191 3105.12 885.082 3101.11 913.82 3100.56 922.492 3099.62 936.633 3090.15 993.492 3089.39 1008.05 3088.77 1020.34 3083.22 1057.98 3085.01 1063.14 3096.34 1069.02 3108.35 1069.15 3117.46 1069.32 3122.48 1069.45 3126.85 1067.22 3131.69 1067.65 3144.46 1059.3 3148.48 1048.8 3150.71 1038.28 3157.14 1034.53 3158.02 1036.2 3163.14 1036.2 3171.74 1049.59 3161.72 1081.8 3161.72 1096.93 3159.6 1098.4 3157.44 1099.76 3155.3 1101.19M4470.93 1970.04C4465.76 1971.51 4459.41 1976.88 4455.58 1980.31 4451.75 1983.6 4432.64 2005.37 4427.38 2012.33 4418.8 2023.64 4379.63 2065.9 4371 2077.65 4363.73 2087.59 4338.37 2115.95 4337.03 2121.29 4343.29 2132.38 4353.22 2139.15 4360.73 2144.31 4364.85 2147.16 4369.75 2147.7 4373.58 2150.7 4388.8 2150.74 4397.94 2144.24 4405.61 2136.64 4413.04 2137.01 4412.86 2138.89 4417.12 2141.73 4416.91 2157.66 4390.85 2179.02 4382.5 2191.7H4374.83C4368.94 2182.73 4229.42 2071.65 4212.07 2055.89 4214.02 2044.37 4241.77 2018.51 4250.53 2011.04 4257.46 2011.17 4259.16 2012.18 4260.79 2017.42 4262.04 2020.85 4253.11 2035.28 4253.11 2048.21 4255.62 2054.97 4253.77 2055.3 4262.29 2061.65 4266.26 2064.57 4283.06 2076.83 4286.41 2080.24H4291.57C4317.35 2052.89 4381.08 1982.72 4386.39 1975.13 4390.55 1969.13 4407.28 1949.69 4410.69 1944.44 4413.78 1939.69 4414.04 1939.75 4417.12 1934.18 4417.62 1920.15 4417.21 1911.6 4408.14 1904.69 4408.49 1898.13 4410.45 1891.25 4415.79 1892.13 4434.47 1903.72 4482.11 1945.53 4504.26 1963.61 4503.22 1989.23 4486.86 1965.45 4470.93 1970.04M1540.42 2146.86C1563.5 2224.53 1496.38 2293.89 1426.39 2292.94 1409.43 2292.68 1399.82 2291.65 1390.52 2287.81 1371.91 2280.13 1351.39 2270.46 1336.71 2258.36 1305.8 2232.83 1258.46 2154.36 1289.29 2096.88 1306.62 2064.57 1339.5 2037.7 1378.98 2027.68 1405.16 2021.05 1436.69 2034.74 1450.75 2041.79 1493.9 2063.45 1525.75 2097.35 1540.42 2146.86M2263.58 1288.39C2268.34 1303.9 2255.29 1299.9 2252.69 1300.65 2240.98 1287.1 2208.94 1274.38 2191.3 1278.12 2166.61 1283.39 2151.34 1305.87 2137.3 1322.72 2123.27 1339.58 2177.85 1369.06 2195.47 1387.41 2206.61 1387 2219.71 1371.14 2225.29 1362.85 2234.22 1349.54 2224.13 1335.56 2214.16 1325.52 2215.22 1318.51 2217.33 1319.09 2221.08 1315.63 2233.93 1318.51 2241.92 1332.72 2250.99 1341.28 2265.13 1354.5 2279.92 1367.06 2293.32 1381.07 2292.32 1385.41 2294.18 1386.33 2290.37 1388.63 2276.27 1390.33 2265.42 1377.4 2252.37 1378.89 2240.19 1383.57 2230.86 1394.3 2221.37 1406.78 2211.9 1419.19 2266.25 1457.23 2271.05 1461.99 2275.87 1466.75 2290.91 1453.15 2298.12 1444.64 2307.59 1433.38 2320.4 1423.2 2325.07 1408.47 2330.16 1392.59 2320.57 1376.78 2311.09 1364.72 2304.09 1355.79 2300.56 1348.71 2313.18 1344.95 2326.7 1347.03 2334.13 1361.73 2342.84 1370.69 2351.52 1379.57 2374.75 1394.14 2374.14 1405.9 2357.19 1416.11 2345.88 1434.33 2331.87 1448.15 2318.81 1460.99 2305.86 1474.01 2293.02 1487.1 2284.55 1495.79 2240.14 1553.92 2231.76 1549.75 2219.14 1542.96 2233.82 1527.31 2233.6 1516.72 2233.26 1502.28 2221.59 1494.28 2212.03 1485.44 2192.3 1467.01 2173.08 1447.89 2153.34 1429.33 2135.61 1412.61 2119.47 1392.84 2100.01 1378.07 2089.9 1370.4 2076.64 1371.48 2066.91 1379.77 2059.38 1386.25 2052.11 1379.99 2052.63 1370.81 2078.66 1348.83 2101.54 1322.09 2124.68 1297.15 2134.7 1286.31 2144.92 1275.54 2154.26 1264.12 2164.52 1251.6 2177.46 1230.66 2193.76 1225.66 2201.52 1222.86 2245.95 1272.12 2263.58 1288.39M2842.61 1105.19C2824.84 1109.62 2807.05 1114.2 2789.34 1118.91 2777.65 1122.05 2709.82 1149.49 2704.73 1141.56 2697.32 1129.3 2717.93 1123.34 2723.14 1114.12 2730.19 1101.52 2724.21 1088.68 2720.52 1076.2 2712.95 1050.3 2706.1 1024.02 2698.6 998.043 2691.88 974.602 2688.05 949.363 2678.85 926.754 2674.05 914.992 2662.1 909.141 2649.5 911.363 2639.7 913.07 2636.64 903.973 2641.74 896.383 2675.37 890.711 2708.7 879.371 2741.31 869.691 2755.45 865.48 2769.72 861.383 2783.59 856.344 2798.79 850.844 2820.6 839.363 2837.21 843.371 2845.3 844.902 2858.37 909.98 2865.3 932.922 2861.48 948.691 2852.27 938.594 2849.68 937.922 2846.46 920.32 2825.4 893.043 2808.32 887.293 2784.4 879.203 2759.79 890.793 2739.14 898.133 2718.45 905.48 2750.4 958.703 2756.2 983.402 2766.05 988.742 2785.34 981.801 2794.37 977.473 2808.87 970.633 2807.29 953.453 2803.84 939.711 2808.34 934.184 2809.82 935.801 2814.85 934.711 2824.42 943.773 2824.04 960.043 2827.51 972.051 2832.93 990.602 2839.25 1008.96 2843.63 1027.86 2840.59 1031.07 2841.69 1032.83 2837.25 1032.83 2824.23 1027.1 2821.5 1010.42 2809.51 1005.09 2796.66 1002.91 2783.15 1007.42 2768.63 1013.26 2754.16 1019.18 2781.56 1079.58 2783.27 1086.09 2784.96 1092.68 2804.86 1088.59 2815.35 1085.01 2829.26 1080.13 2845.46 1077.88 2856.98 1067.57 2869.47 1056.47 2869.26 1038.04 2867.24 1022.85 2865.78 1011.59 2866.36 1003.66 2879.14 1006.84 2889.68 1015.6 2888.59 1031.95 2891.56 1044.12 2894.48 1056.18 2907.04 1080.57 2900.53 1090.39 2880.71 1090.55 2861.73 1100.44 2842.61 1105.19M4039.09 1677.89C4023.19 1681.36 4028.28 1668.68 4027.78 1666.04 4042.22 1655.46 4057.57 1624.59 4055.28 1606.74 4052.06 1581.71 4030.96 1564.6 4015.31 1549.22 3999.68 1533.82 3965.76 1585.79 3946.03 1601.81 3945.53 1613 3960.2 1627.3 3968.05 1633.55 3980.58 1643.61 3995.33 1634.68 4006.13 1625.59 4013.06 1627.21 4012.27 1629.27 4015.44 1633.31 4011.52 1645.86 3996.66 1652.62 3987.41 1660.96 3973.07 1673.97 3959.29 1687.64 3944.2 1699.83 3939.98 1698.5 3938.9 1700.25 3936.93 1696.24 3936.39 1682.07 3950.2 1672.35 3949.77 1659.21 3946.16 1646.7 3936.24 1636.51 3924.59 1626 3912.95 1615.57 3870.61 1666.54 3865.45 1670.96 3860.27 1675.4 3872.62 1691.48 3880.46 1699.33 3890.89 1709.76 3900.03 1723.36 3914.3 1729.2 3929.73 1735.61 3946.24 1727.36 3959.04 1718.93 3968.55 1712.68 3975.9 1709.76 3978.61 1722.65 3975.35 1735.96 3960.13 1742.13 3950.45 1750.06 3940.94 1757.98 3924.46 1779.92 3912.78 1778.34 3903.98 1760.57 3886.81 1747.8 3874.17 1732.69 3862.45 1718.61 3850.56 1704.67 3838.57 1690.74 3830.65 1681.6 3776.4 1632.51 3781.27 1624.51 3789.07 1612.49 3803.46 1628.43 3814.05 1629.1 3828.41 1629.92 3837.32 1619 3846.96 1610.19 3866.94 1592.05 3887.64 1574.44 3907.74 1556.34 3925.93 1540.09 3946.95 1525.65 3963.26 1507.45 3971.72 1498.04 3971.82 1484.72 3964.31 1474.34 3958.47 1466.3 3965.3 1459.58 3974.39 1460.83 3994.17 1488.61 4018.94 1513.63 4041.87 1538.74 4051.82 1549.68 4061.74 1560.68 4072.33 1570.95 4083.93 1582.21 4103.74 1596.89 4107.37 1613.53 4109.54 1621.49 4056.73 1661.68 4039.09 1677.89M4642.62 2207.09C4655.55 2194.66 4666.56 2162 4661.88 2144.61 4655.29 2120.2 4632.02 2106.15 4614.46 2093.01 4596.89 2079.91 4570.37 2135.97 4552.94 2154.58 4553.98 2165.67 4570.46 2177.85 4579.05 2183.03 4592.81 2191.24 4606.24 2180.43 4615.75 2169.93 4622.85 2170.63 4622.34 2172.77 4626.01 2176.35 4623.77 2189.32 4610 2198.05 4601.99 2207.55 4589.52 2222.41 4577.7 2237.8 4564.45 2251.93 4560.11 2251.18 4559.28 2253.09 4556.78 2249.35 4554.27 2235.42 4566.7 2223.9 4564.45 2210.93 4559.19 2199.04 4547.94 2190.24 4535 2181.44 4522.08 2172.67 4486.99 2228.94 4482.48 2234 4477.99 2239.04 4492.36 2253.36 4501.22 2260.11 4512.98 2268.95 4523.86 2281.22 4538.8 2285.1 4554.94 2289.3 4570.2 2278.88 4581.72 2268.79 4590.31 2261.36 4597.16 2257.44 4601.65 2269.87 4600.23 2283.46 4585.98 2291.65 4577.46 2300.82 4569.03 2310 4555.78 2333.94 4543.96 2333.94 4532.83 2317.59 4514.06 2307.24 4499.55 2293.97 4486 2281.63 4472.35 2269.4 4458.58 2257.27 4449.49 2249.26 4389.01 2207.97 4392.77 2199.37 4398.93 2186.44 4415.28 2200.29 4425.88 2199.45 4440.23 2198.37 4447.62 2186.28 4455.97 2176.31 4473.27 2155.62 4491.37 2135.38 4508.9 2114.7 4524.66 2096.1 4543.51 2078.95 4557.19 2058.73 4564.37 2048.21 4562.62 2035.03 4553.78 2025.77 4546.88 2018.6 4552.76 2011 4561.94 2011.04 4585.3 2035.87 4613.26 2057.3 4639.36 2079.08 4650.71 2088.5 4661.98 2098.1 4673.91 2106.86 4686.92 2116.45 4708.52 2128.25 4714.4 2144.31 4717.61 2151.91 4670.72 2198.84 4655.47 2217.31 4640.24 2222.9 4643.5 2209.64 4642.62 2207.09M4948.61 2416.53C4943.4 2429.08 4935.85 2417.45 4934.14 2410.18 4931.77 2400.1 4928.93 2390.5 4919.09 2385.83 4895.48 2374.57 4872.78 2395.51 4851.67 2405.85 4841.08 2411.06 4828.83 2415.32 4817.01 2411.94 4807.97 2409.34 4800.58 2402.43 4791.28 2400.59 4792.58 2411.27 4802.13 2419.45 4804.54 2430.41 4806.62 2439.88 4807.88 2447.43 4804.37 2456.82 4796.9 2476.8 4790.27 2490.03 4768.16 2498.41 4715.77 2518.26 4684.75 2464.62 4652.88 2434.37 4632.61 2415.14 4615.51 2393.09 4593.32 2375.73 4583.13 2367.81 4595.11 2359.13 4603.24 2365.72 4615.92 2376.07 4625.35 2370.4 4637.28 2362.46 4651.04 2353.29 4659.31 2340.98 4671.64 2330.31 4683.11 2320.33 4693.34 2309.04 4703.68 2297.9 4721.33 2278.88 4746.65 2262.91 4760 2240.5 4767.75 2227.54 4771.45 2221.9 4763.57 2208.14 4757.66 2197.71 4762.08 2183.45 4774.43 2195.37 4795.07 2215.22 4816.56 2232.17 4835.32 2253.93 4844.63 2264.71 4856.14 2269.91 4843.84 2282.67 4833.11 2280.42 4827.4 2268.11 4815.06 2272.24 4805.38 2275.46 4797.12 2286.97 4789.7 2293.27 4776.88 2304.02 4765.92 2315.47 4754.66 2327.76 4741.47 2342.2 4767.92 2361.8 4781.27 2368.13 4799.66 2376.82 4811.46 2359.76 4824.56 2350.62 4845.92 2335.72 4866.2 2321.08 4893.01 2327.26 4909.32 2331.02 4921.58 2342.54 4931.88 2355.38 4945.03 2371.73 4957.38 2395.34 4948.61 2416.53" fill="#093254"/>
<path transform="matrix(.1,0,0,-.1,0,792)" d="M4714.67 2452.08C4711.08 2449.37 4705.96 2449.53 4701.88 2447 4693.73 2441.82 4670.41 2421.26 4669.83 2409.78 4680.1 2400.02 4711.21 2361.9 4723.65 2359.82 4733.65 2370.12 4751.1 2380.89 4756.94 2394.42 4770.53 2425.71 4741.82 2452.04 4714.67 2452.08" fill="#ffffff"/>
<path transform="matrix(.1,0,0,-.1,0,792)" d="M1439.49 2253.46C1419.22 2249.24 1416.9 2246.95 1407.45 2241.95 1377.27 2226.01 1343.34 2188.55 1328.01 2157.35 1312.29 2125.39 1316.67 2095.99 1340.82 2077.92 1344.28 2075.34 1348.28 2071.09 1352.81 2069.37 1374.56 2061.08 1394.33 2071.59 1407.45 2079.22 1440.1 2098.25 1479.32 2137.44 1492.02 2175.33 1506.83 2219.5 1483.39 2254 1439.49 2253.46" fill="#ffffff"/>
<path transform="matrix(.1,0,0,-.1,0,792)" d="M1656.03 2079.22C1645.87 2063.87 1605.41 2029.67 1612.48 2022.82 1622.74 2010.61 1636.74 1997.34 1653.49 1992.08 1680.31 1983.65 1710.86 2014.44 1702.17 2040.8 1696.2 2058.83 1677.49 2068.04 1663.73 2079.22 1661.16 2079.22 1660.14 2083.72 1656.03 2079.22" fill="#ffffff"/>
<path transform="matrix(.1,0,0,-.1,0,792)" d="M3731.86 1507.71C3727.71 1505.27 3720.14 1507.07 3715.21 1505.14 3706.71 1501.89 3676.09 1471.61 3675.5 1461.61 3680.09 1458.5 3681.98 1453.93 3685.73 1450.09 3695.86 1439.73 3706.25 1429.52 3716.46 1419.3 3734.68 1401.2 3755.77 1386.02 3774.16 1368.07 3783.57 1358.8 3805.93 1332.38 3820.25 1330.86 3831.75 1342.89 3848.46 1354.02 3854.86 1370.63 3863.21 1392.09 3850.52 1415.16 3844.61 1426.98 3827.91 1460.68 3780.04 1506.73 3731.86 1507.71" fill="#ffffff"/>
<path transform="matrix(.1,0,0,-.1,0,792)" d="M2462.7 1285.88C2452.54 1270.53 2412.07 1236.33 2419.14 1229.48 2429.41 1217.27 2443.41 1204 2460.16 1198.74 2486.98 1190.31 2517.52 1221.1 2508.84 1247.46 2502.86 1265.49 2484.16 1274.7 2470.39 1285.88 2467.82 1285.88 2466.8 1290.38 2462.7 1285.88" fill="#ffffff"/>
<path transform="matrix(.1,0,0,-.1,0,792)" stroke-width="40" stroke-linecap="butt" stroke-miterlimit="4" stroke-linejoin="miter" fill="none" stroke="#093254" d="M2243.76 2213.41C1682.05 2997.02 1616.67 3811.9 1616.67 4451.26 1827.46 4451.26 4193.55 4445.99 4259.43 4448.62 4257.37 4009.23 4308.55 3102.63 3640.22 2185.28 3462.96 1941.94 3246.69 1709.87 2951.47 1471.25 2645.68 1713.2 2425.92 1959.3 2243.76 2213.41Z"/>
</svg>
